<svg width="213" height="46" viewBox="0 0 213 46" fill="none" xmlns="http://www.w3.org/2000/svg">
<mask id="mask0_104_50" style="mask-type:luminance" maskUnits="userSpaceOnUse" x="0" y="0" width="213" height="46">
<path d="M212.91 0.330078H0.910156V45.2301H212.91V0.330078Z" fill="white"/>
</mask>
<g mask="url(#mask0_104_50)">
<mask id="mask1_104_50" style="mask-type:luminance" maskUnits="userSpaceOnUse" x="0" y="0" width="213" height="46">
<path d="M212.91 0.330078H0.910156V45.2301H212.91V0.330078Z" fill="white"/>
</mask>
<g mask="url(#mask1_104_50)">
<path fill-rule="evenodd" clip-rule="evenodd" d="M143.52 1.32031H140.61V14.4303H143.52C144.03 14.4303 144.29 14.0803 144.31 13.4303V2.60031C144.31 1.75031 144.05 1.32031 143.51 1.32031M105.51 6.32031H105.32C104.56 6.32031 104.5 6.74031 104.49 7.57031V16.0003C105.49 16.0003 108.22 16.3203 108.31 13.8003V8.12032C108.31 6.12032 106.95 6.26031 105.5 6.27031M13.4802 4.11031L7.91016 17.8803H13.4902L13.4802 4.11031ZM90.9102 9.58031L88.7202 19.5803H92.7202L90.9102 9.58031ZM41.9102 6.15031C40.4502 6.15031 39.9802 6.58032 39.9102 8.30032V24.6603C39.9102 26.2403 39.9902 26.3503 40.7802 26.4303C41.6289 26.4953 42.4825 26.4516 43.3202 26.3003C45.3202 25.7503 45.8102 21.8103 45.8102 21.8103C46.1502 17.3503 46.3502 11.4703 45.1202 8.32031C44.5002 6.68031 43.7002 6.15031 41.8602 6.15031M10.8602 0.330315L16.9902 0.410316C16.9902 1.70032 16.9902 17.8103 16.9902 22.5103V23.7003C16.9902 26.6303 18.2302 26.7703 19.4402 26.7803H19.5102V27.4603H10.9602V26.7803C12.4102 26.7803 13.4502 26.6403 13.4802 23.8603V18.8603H7.48016C7.48016 18.8603 6.33016 21.6603 5.67016 23.2503C5.01016 24.8403 5.40016 26.6803 6.67016 26.7703H6.71016V27.4503H0.910156V26.7703C2.52016 26.7703 3.59016 24.9203 4.35016 23.2403C4.95016 21.9003 10.1502 8.74031 12.2102 3.53031C12.7102 2.25031 12.5802 1.08031 11.0702 1.03031H10.9602V0.320312L10.8602 0.330315ZM69.2402 5.16032L73.5402 20.7503L73.6202 20.4003L78.2102 5.16032H83.6902V5.85031C82.5302 5.85031 81.6902 6.93031 81.6902 8.63031V24.0003C81.6902 25.7103 82.5502 26.7803 83.6902 26.7803V27.4603H76.4102V26.7803C77.5702 26.7803 78.4102 25.7103 78.4102 24.0003V8.00031L72.7402 27.4403H72.2002L66.7202 8.00031V24.0003C66.7202 25.7103 67.5302 26.7803 68.7202 26.7803V27.4603H63.7202V26.7803C64.8802 26.7803 65.7202 25.7103 65.7202 24.0003V8.70031C65.7202 6.34031 65.1402 5.85031 63.7202 5.85031V5.16032H69.2402ZM134.33 0.330315H145.01C146.86 0.330315 147.82 1.69031 147.87 3.57031V11.9303C147.87 14.3303 146.77 15.4103 145.33 15.4603H140.61V23.4603C140.61 26.3803 141.5 26.7603 143.01 26.7803H143.1V27.4603H134.44V26.7803C135.78 26.7803 136.92 26.5403 136.96 23.6103V4.07031C136.96 2.07031 135.96 1.07031 134.55 1.07031H134.43V0.360313L134.33 0.330315ZM93.1402 5.09031L97.2802 25.2403C97.6102 26.5803 98.1702 26.7603 98.5202 26.7803V27.4603H92.8002V26.7803C93.6402 26.7803 94.3402 26.4803 93.9602 24.7803V24.6503L93.0802 20.6503H88.4702L87.6102 23.9003C87.2102 25.5803 87.2202 26.7103 88.5402 26.7703H88.6402V27.4503H84.8502V26.7703C85.3902 26.7703 85.9602 26.4703 86.4002 24.7703V24.6203L90.0502 8.32031C90.3002 6.96031 90.4902 5.86032 89.2102 5.80032H89.1102V5.10031L93.1402 5.09031ZM212.91 5.16032V9.44032H212.17C212.07 8.58032 211.88 7.33031 211.11 6.83031C210.399 6.44118 209.587 6.27727 208.78 6.36031H208.25V24.0003C208.25 25.7103 209.13 26.7803 210.19 26.7803V27.4603H203.13V26.7803C204.19 26.7803 205.03 25.7103 205.03 24.0003V6.36031C204.051 6.22563 203.054 6.38943 202.17 6.83031C201.4 7.33031 201.17 8.58032 201.11 9.44032H200.37V5.16032H212.91ZM198.91 5.16032V9.44032H198.1C197.9 8.32032 197.74 6.44031 194.55 6.28031L193.2 6.21031C192.48 6.21031 192.33 6.47031 192.33 8.15031V15.6503C194.67 15.4503 194.98 15.2903 195.48 12.3903H196.11V20.0603H195.48C194.89 16.9803 194.67 16.9903 192.33 16.7903V24.2903C192.33 25.8503 192.48 26.2903 193.48 26.4103C195.08 26.4703 197.98 27.0303 199.03 23.4103H199.93L199.04 27.4103H187.17V26.7303C188.23 26.7303 189.11 25.6603 189.11 23.9503V8.63031C189.11 6.93031 188.23 5.85031 187.17 5.85031V5.16032H198.91ZM156.91 5.16032V5.85031C155.59 5.85031 154.99 6.93031 154.99 8.64031V24.0003C154.99 25.7103 155.59 26.7803 156.91 26.7803V27.4603H149.83V26.7803C151.15 26.7803 151.76 25.7103 151.76 24.0003V8.64031C151.76 6.93031 151.15 5.85031 149.83 5.85031V5.16032H156.91ZM61.7302 5.16032V9.44032H60.9102C60.7102 8.32032 60.5402 6.44031 57.3602 6.28031L56.0102 6.21031C55.2802 6.21031 55.1402 6.47031 55.1402 8.15031V15.6503C57.4702 15.4503 57.7802 15.2903 58.2902 12.3903H58.9102V20.0603H58.2802C57.6802 16.9803 57.4602 16.9903 55.1302 16.7903V24.2903C55.1302 25.8503 55.2802 26.2903 56.2902 26.4103C57.8902 26.4703 60.7902 27.0203 61.8402 23.4103H62.7402L61.8502 27.4103H49.9102V26.7303C50.9702 26.7303 51.9102 25.6603 51.9102 23.9503V8.63031C51.9102 6.93031 50.9902 5.85031 49.9102 5.85031V5.16032H61.7302ZM34.8602 5.16032H42.9102C44.9802 5.16032 46.4302 5.63032 47.3302 6.80032C48.2302 7.97032 48.8602 10.3103 49.0502 14.1503C49.3305 17.3518 48.991 20.5774 48.0502 23.6503C47.0502 26.5603 45.4102 27.4303 43.9702 27.4603H34.8302V26.7803C35.8302 26.7803 36.7102 25.7803 36.7602 24.1503V8.63031C36.7602 6.98031 35.9302 5.91031 34.9202 5.85031H34.8302V5.16032H34.8602ZM99.4202 5.16032H106.64C109.1 5.16032 111.4 5.30031 111.4 7.93031C111.4 9.49031 111.45 11.8303 111.45 14.0503C111.45 16.0503 110.02 16.5403 108.86 16.8103H108.78L112.49 25.5903C113.04 26.8903 113.35 26.7703 113.59 26.7603V27.4403H110.91C110.528 27.465 110.15 27.3553 109.84 27.1303C109.594 26.8716 109.404 26.5653 109.28 26.2303L105.6 17.0803H104.53V24.0003C104.53 25.6603 105.4 26.7203 106.41 26.7803H106.5V27.4603H99.3602V26.7803H99.4302C99.9953 26.6201 100.489 26.2725 100.831 25.7946C101.172 25.3167 101.341 24.7369 101.31 24.1503V8.64031C101.31 6.98031 100.49 5.91031 99.4802 5.85031H99.3902L99.4202 5.16032ZM119.06 4.55032C121.95 4.43032 122.29 5.73031 123.4 5.76031C123.75 5.76031 124.03 5.58031 124.07 4.82031H124.72V11.7603H124.14C123.81 9.90032 122.87 5.66031 119.88 5.63031C117.88 5.63031 117.59 8.53031 117.59 9.32031C117.59 10.7603 118.53 12.4303 120.98 13.7103C124.42 15.4803 125.91 18.1703 125.91 21.3103C125.91 23.6103 125.06 27.6903 120.24 27.7503C118.35 27.7503 117.24 26.6303 116.18 26.6303C115.91 26.6303 115.74 26.9703 115.67 27.6303H115V19.8303H115.65L116.12 22.1203C116.39 23.4003 117.74 26.7703 119.79 26.7703C122.69 26.7703 122.92 23.4803 122.92 22.6903C122.92 20.7903 121.76 19.8103 118.12 17.3503C117.086 16.5947 116.248 15.6018 115.677 14.455C115.106 13.3082 114.819 12.0411 114.84 10.7603C114.84 6.31032 117.18 4.67031 119.06 4.59031M164.77 4.78031C167.51 4.78031 169.07 7.48031 169.07 4.85031H169.91V11.7203H168.82C168.82 7.86031 166.69 5.87032 164.7 5.87032C164.347 5.84883 163.993 5.90522 163.663 6.03548C163.334 6.16575 163.037 6.36673 162.794 6.62423C162.551 6.88173 162.367 7.18947 162.256 7.52573C162.145 7.862 162.109 8.21858 162.15 8.57031V23.9303C162.15 26.0603 162.83 26.6903 164.53 26.6903C166.23 26.6903 167.19 26.4603 167.19 23.6903V18.4203C167.19 16.8603 166.19 16.7803 166.19 16.7803V16.2003H171.06V16.7803C171.06 16.7803 170.06 16.9003 170.06 18.3803V22.1203C170.084 23.5432 169.562 24.9211 168.6 25.9703C168.176 26.4798 167.647 26.8923 167.05 27.1803C166.267 27.527 165.426 27.7205 164.57 27.7503C162.957 27.766 161.396 27.1815 160.19 26.1103C159.247 25.0505 158.749 23.6679 158.8 22.2503V10.2503C158.754 8.82436 159.251 7.43402 160.19 6.36031C160.8 5.79741 161.521 5.36723 162.305 5.09699C163.09 4.82675 163.923 4.72232 164.75 4.79031M26.3502 5.21031V5.90031C25.3002 5.90031 24.3502 6.98032 24.3502 8.69032V22.1203C24.3502 24.4803 24.6402 26.5003 26.7102 26.5003C28.7802 26.5003 30.9102 26.8503 30.9102 22.0003V8.64031C30.9102 6.93031 30.0002 5.85031 28.9102 5.85031V5.16032H33.8102V5.85031C32.8102 5.85031 31.8102 6.93031 31.8102 8.64031V21.8603C31.8102 27.6903 29.6502 27.8603 26.1302 27.8603C22.6102 27.8603 21.1302 25.8003 21.1302 23.0203V8.64031C21.1302 6.93031 20.1802 5.85031 19.1302 5.85031V5.16032L26.3502 5.21031ZM178.74 5.21031V5.90031C177.68 5.90031 176.81 6.98032 176.81 8.69032V21.9803C176.81 24.4003 177.05 26.5003 179.17 26.5003C181.29 26.5003 183.3 26.9003 183.3 22.0103V8.64031C183.3 6.93031 182.46 5.85031 181.4 5.85031V5.16032H186.17V5.85031C185.12 5.85031 184.28 6.93031 184.28 8.64031V21.8603C184.28 27.6903 182.12 27.8603 178.6 27.8603C175.08 27.8603 173.6 25.8003 173.6 23.0203V8.64031C173.6 6.93031 172.72 5.85031 171.66 5.85031V5.16032L178.74 5.21031ZM100.74 35.9203H100.59C100.18 35.9203 100.15 35.9203 100.03 36.3803L99.1302 39.2803C99.0302 39.6303 99.0402 39.7003 99.6702 39.7003C100.67 39.7003 102.57 39.1903 102.57 37.3603C102.57 36.5203 101.93 35.9203 100.74 35.9203ZM89.1102 39.6103C88.9102 39.6103 88.5302 39.7403 88.0102 40.3103C87.5473 40.8048 87.175 41.3769 86.9102 42.0003C87.6422 41.827 88.313 41.457 88.8502 40.9303C89.1554 40.6774 89.3581 40.3219 89.4202 39.9303C89.4216 39.8857 89.4138 39.8413 89.3971 39.7999C89.3804 39.7586 89.3552 39.7211 89.3232 39.69C89.2912 39.659 89.253 39.6349 89.2112 39.6195C89.1693 39.604 89.1247 39.5975 89.0802 39.6003M113.56 39.9103C113.21 39.9103 112.98 40.0703 112.56 40.4703C111.558 41.4854 110.922 42.8044 110.75 44.2203C110.75 44.4003 110.83 44.5003 110.96 44.5003C111.09 44.5003 111.54 44.3103 112.37 43.5603C113.285 42.7088 113.954 41.6281 114.31 40.4303C114.261 40.2783 114.165 40.1458 114.035 40.0523C113.906 39.9587 113.75 39.909 113.59 39.9103M99.5902 40.1203C98.8902 40.1203 98.8402 40.1203 98.6902 40.6203L97.8402 43.4003C97.5302 44.4003 97.9502 44.6603 98.9902 44.6603C99.3523 44.6787 99.7142 44.6213 100.053 44.4921C100.392 44.3628 100.7 44.1643 100.958 43.9093C101.215 43.6544 101.417 43.3485 101.55 43.0112C101.683 42.6739 101.745 42.3126 101.73 41.9503C101.72 41.6862 101.654 41.4271 101.539 41.1893C101.424 40.9515 101.26 40.7401 101.06 40.5683C100.859 40.3965 100.624 40.268 100.372 40.1909C100.119 40.1138 99.8527 40.0898 99.5902 40.1203ZM100.15 35.4603C100.948 35.4249 101.745 35.5402 102.5 35.8003C102.873 35.9357 103.192 36.1858 103.414 36.5147C103.635 36.8437 103.746 37.2343 103.73 37.6303C103.685 38.2089 103.43 38.7512 103.015 39.156C102.599 39.5608 102.05 39.8005 101.47 39.8303C101.24 39.8303 101.34 39.9503 101.47 39.9903C101.913 40.1429 102.297 40.4305 102.568 40.8126C102.838 41.1946 102.983 41.652 102.98 42.1203C102.983 42.4715 102.916 42.8199 102.782 43.1445C102.648 43.4692 102.45 43.7637 102.2 44.0103C101.722 44.415 101.168 44.7206 100.571 44.9095C99.9731 45.0983 99.3442 45.1666 98.7202 45.1103C97.9402 45.1103 97.4002 45.1103 96.7902 45.1103C96.1802 45.1103 95.7202 45.1103 95.3002 45.1103C95.2746 45.0878 95.2542 45.0601 95.2402 45.0291C95.2262 44.998 95.2189 44.9644 95.2189 44.9303C95.2189 44.8963 95.2262 44.8626 95.2402 44.8316C95.2542 44.8005 95.2746 44.7728 95.3002 44.7503H95.5902C96.2902 44.6503 96.4302 44.5103 96.9002 43.0303L98.6502 37.3303C99.0002 36.2203 98.8702 36.0903 98.2202 36.0403H97.7402C97.6402 35.9703 97.6702 35.7603 97.7402 35.6903C98.5453 35.5782 99.3572 35.5214 100.17 35.5203M82.7202 35.5203C82.7472 35.5419 82.7691 35.5692 82.7841 35.6004C82.7992 35.6316 82.807 35.6657 82.807 35.7003C82.807 35.7349 82.7992 35.7691 82.7841 35.8002C82.7691 35.8314 82.7472 35.8588 82.7202 35.8803L82.2702 35.9403C81.4502 36.0403 81.3702 36.2103 80.9202 37.6503L79.3302 42.7803C78.8202 44.3703 78.7402 44.6803 80.5002 44.6803C82.2602 44.6803 82.7902 44.6003 83.6802 43.1703C83.8202 43.1703 83.9702 43.1703 84.0002 43.2603C83.751 43.9248 83.4396 44.5643 83.0702 45.1703C82.5302 45.1703 81.9502 45.1703 81.3702 45.1703H77.9902C77.4002 45.1703 76.9202 45.1703 76.4502 45.1703C76.426 45.147 76.4067 45.119 76.3936 45.0881C76.3804 45.0572 76.3736 45.0239 76.3736 44.9903C76.3736 44.9567 76.3804 44.9234 76.3936 44.8925C76.4067 44.8616 76.426 44.8336 76.4502 44.8103H76.8002C77.4902 44.7103 77.6402 44.5703 78.1002 43.0903L79.8002 37.7003C80.2302 36.3303 80.2602 36.1003 79.4602 35.9903L79.1202 35.9303C79.0945 35.9041 79.0758 35.872 79.0658 35.8368C79.0557 35.8016 79.0546 35.7644 79.0625 35.7286C79.0705 35.6929 79.0872 35.6597 79.1113 35.632C79.1353 35.6044 79.1659 35.5832 79.2002 35.5703C79.7702 35.5703 80.2602 35.5703 80.8602 35.5703C81.4602 35.5703 81.9302 35.5703 82.6802 35.5703M109.08 39.2603C109.59 39.2603 109.66 39.7603 109.66 39.9703C109.636 40.2812 109.533 40.5808 109.36 40.8403C109.18 41.0603 108.95 41.0703 108.89 40.7703C108.83 40.4703 108.73 40.2003 108.59 40.2003C108.45 40.2003 108.3 40.3503 108.08 40.6403C107.104 42.071 106.28 43.5992 105.62 45.2003C105.603 45.253 105.57 45.2989 105.525 45.3313C105.48 45.3637 105.426 45.3809 105.37 45.3803C105.21 45.3803 104.79 45.3203 104.89 45.0003C105.08 44.4203 105.99 41.8603 106.38 40.4403C106.43 40.2803 106.38 40.1303 106.27 40.1303C105.89 40.1303 105.5 40.5403 105.27 40.8903C105.12 40.8903 105.02 40.8303 105.04 40.6503C105.5 39.8703 106.04 39.2603 106.75 39.2603C107.46 39.2603 107.21 40.2603 107.08 40.6403L106.46 42.4703H106.53C106.979 41.6192 107.487 40.8005 108.05 40.0203C108.39 39.5803 108.75 39.2603 109.11 39.2603M89.3902 39.2603C89.6257 39.26 89.8525 39.35 90.0236 39.5119C90.1948 39.6737 90.2974 39.8951 90.3102 40.1303C90.3102 41.2303 88.8702 41.9603 86.7902 42.5403C86.6376 42.9528 86.5663 43.3908 86.5802 43.8303C86.5691 43.9307 86.5788 44.0323 86.6085 44.1288C86.6382 44.2254 86.6873 44.3148 86.7529 44.3916C86.8185 44.4684 86.8991 44.531 86.9898 44.5755C87.0804 44.62 87.1793 44.6455 87.2802 44.6503C87.8002 44.6503 88.1602 44.3603 88.8002 43.8103C88.8304 43.8109 88.8601 43.8182 88.887 43.8319C88.914 43.8456 88.9375 43.8652 88.9557 43.8893C88.974 43.9133 88.9866 43.9412 88.9926 43.9708C88.9985 44.0005 88.9977 44.0311 88.9902 44.0603C88.7316 44.4445 88.3875 44.7635 87.985 44.9926C87.5826 45.2216 87.1325 45.3543 86.6702 45.3803C85.8002 45.3803 85.5002 44.5703 85.5002 43.8603C85.5619 43.0951 85.7854 42.3516 86.1561 41.6793C86.5267 41.007 87.036 40.421 87.6502 39.9603C88.1329 39.5346 88.7471 39.2875 89.3902 39.2603ZM136.63 39.2603C136.852 39.2626 137.065 39.3499 137.225 39.5043C137.385 39.6586 137.48 39.8683 137.49 40.0903C137.491 40.1817 137.468 40.2717 137.422 40.3509C137.376 40.4301 137.31 40.4955 137.23 40.5403C137.13 40.5403 137.05 40.5403 136.96 40.4203C136.857 40.2828 136.725 40.17 136.572 40.0904C136.42 40.0108 136.252 39.9664 136.08 39.9603C136.003 39.959 135.926 39.9729 135.854 40.0014C135.782 40.0298 135.716 40.0722 135.66 40.126C135.604 40.1799 135.56 40.2442 135.529 40.3153C135.498 40.3864 135.481 40.4628 135.48 40.5403C135.513 41.0184 135.683 41.4769 135.97 41.8603C136.332 42.3182 136.527 42.8865 136.52 43.4703C136.496 43.7408 136.417 44.0035 136.288 44.2425C136.159 44.4815 135.983 44.6917 135.77 44.8603C135.361 45.2018 134.843 45.3862 134.31 45.3803C134.092 45.3891 133.878 45.3144 133.713 45.1714C133.548 45.0284 133.443 44.8277 133.42 44.6103C133.431 44.4285 133.509 44.2573 133.64 44.1303C133.694 44.0818 133.763 44.055 133.835 44.055C133.907 44.055 133.977 44.0818 134.03 44.1303C134.282 44.4386 134.637 44.6448 135.03 44.7103C135.229 44.6877 135.412 44.5905 135.542 44.4383C135.672 44.2861 135.739 44.0902 135.73 43.8903C135.653 43.4273 135.468 42.9888 135.19 42.6103C134.91 42.2103 134.734 41.746 134.68 41.2603C134.753 40.7556 134.987 40.288 135.347 39.9275C135.708 39.567 136.175 39.3329 136.68 39.2603M115.74 39.0003C115.52 39.5303 114.26 42.7403 113.8 44.0003C113.71 44.2503 113.8 44.3403 113.9 44.3403C114 44.3403 114.57 44.0903 115.39 43.3403C115.416 43.339 115.443 43.3428 115.467 43.3516C115.492 43.3605 115.515 43.3741 115.535 43.3917C115.554 43.4094 115.57 43.4307 115.581 43.4545C115.592 43.4783 115.599 43.504 115.6 43.5303C115.321 43.9487 114.962 44.3074 114.543 44.5855C114.124 44.8637 113.654 45.0556 113.16 45.1503C113.107 45.153 113.053 45.145 113.003 45.1267C112.953 45.1084 112.907 45.0803 112.868 45.0439C112.829 45.0076 112.797 44.9638 112.775 44.915C112.753 44.8663 112.741 44.8137 112.74 44.7603C112.76 44.5636 112.811 44.3712 112.89 44.1903L113.36 42.8903C112.36 44.1703 110.85 45.1703 110.17 45.1703C109.77 45.1703 109.53 44.7603 109.53 44.3603C109.713 43.3306 110.153 42.3638 110.81 41.5503C111.306 40.7979 111.957 40.1603 112.72 39.6803C113.11 39.4208 113.563 39.2722 114.03 39.2503C114.152 39.2521 114.272 39.283 114.38 39.3403C114.497 39.4194 114.593 39.5258 114.66 39.6503L115.07 38.7203C115.196 38.6719 115.335 38.6672 115.463 38.7071C115.592 38.747 115.704 38.8292 115.78 38.9403M124.19 39.0503C124.413 39.0525 124.627 39.1394 124.789 39.2935C124.951 39.4477 125.047 39.6574 125.06 39.8803C125.059 39.9713 125.035 40.0606 124.989 40.1394C124.944 40.2182 124.878 40.2839 124.8 40.3303C124.747 40.3458 124.69 40.3423 124.639 40.3204C124.588 40.2985 124.546 40.2596 124.52 40.2103C124.419 40.0711 124.287 39.9572 124.134 39.8775C123.981 39.7977 123.812 39.7542 123.64 39.7503C123.563 39.749 123.486 39.7629 123.414 39.7914C123.342 39.8198 123.276 39.8622 123.22 39.916C123.164 39.9699 123.12 40.0342 123.089 40.1053C123.058 40.1764 123.041 40.2528 123.04 40.3303C123.078 40.809 123.251 41.2669 123.54 41.6503C123.898 42.1105 124.092 42.6773 124.09 43.2603C124.065 43.5316 123.984 43.7947 123.854 44.0338C123.723 44.2728 123.545 44.4826 123.33 44.6503C122.922 44.9934 122.403 45.178 121.87 45.1703C121.653 45.1789 121.44 45.1039 121.277 44.9607C121.113 44.8174 121.01 44.6169 120.99 44.4003C120.996 44.2194 121.072 44.0477 121.2 43.9203C121.254 43.8718 121.323 43.845 121.395 43.845C121.467 43.845 121.537 43.8718 121.59 43.9203C121.842 44.2286 122.197 44.4348 122.59 44.5003C122.789 44.4777 122.972 44.3805 123.102 44.2283C123.232 44.0761 123.299 43.8802 123.29 43.6803C123.217 43.2161 123.032 42.7767 122.75 42.4003C122.476 41.9976 122.305 41.5342 122.25 41.0503C122.321 40.5548 122.547 40.0944 122.895 39.7351C123.244 39.3758 123.697 39.1361 124.19 39.0503ZM119.67 39.0503C119.893 39.0525 120.107 39.1394 120.269 39.2935C120.431 39.4477 120.527 39.6574 120.54 39.8803C120.54 39.9727 120.515 40.0634 120.467 40.1427C120.42 40.222 120.352 40.2868 120.27 40.3303C120.17 40.3303 120.09 40.3303 120 40.2103C119.896 40.0715 119.762 39.958 119.608 39.8783C119.454 39.7986 119.284 39.7549 119.11 39.7503C119.033 39.749 118.957 39.763 118.885 39.7916C118.814 39.8201 118.748 39.8626 118.694 39.9166C118.639 39.9706 118.595 40.035 118.565 40.106C118.535 40.1771 118.52 40.2533 118.52 40.3303C118.553 40.8084 118.723 41.2669 119.01 41.6503C119.372 42.1082 119.567 42.6765 119.56 43.2603C119.536 43.5308 119.457 43.7935 119.328 44.0325C119.199 44.2715 119.023 44.4817 118.81 44.6503C118.401 44.9918 117.883 45.1762 117.35 45.1703C117.132 45.1791 116.918 45.1044 116.753 44.9614C116.588 44.8184 116.483 44.6177 116.46 44.4003C116.471 44.2185 116.549 44.0473 116.68 43.9203C116.734 43.8718 116.803 43.845 116.875 43.845C116.947 43.845 117.017 43.8718 117.07 43.9203C117.32 44.2308 117.677 44.4374 118.07 44.5003C118.269 44.4777 118.452 44.3805 118.582 44.2283C118.712 44.0761 118.779 43.8802 118.77 43.6803C118.693 43.2173 118.508 42.7789 118.23 42.4003C117.95 42.0003 117.774 41.536 117.72 41.0503C117.793 40.5456 118.027 40.078 118.387 39.7175C118.748 39.357 119.215 39.1229 119.72 39.0503M128.85 39.0503C129.04 39.0503 129.37 39.2403 129.28 39.4903L127.66 43.7203C127.53 44.0703 127.6 44.2103 127.76 44.2103C127.92 44.2103 128.56 43.7503 129.31 43.0103C130.353 41.8581 131.213 40.5529 131.86 39.1403C132.17 39.0803 132.52 39.2303 132.57 39.4003C132.43 39.7903 131.49 42.1703 130.88 43.8903C130.8 44.0803 130.79 44.2603 130.94 44.2603C131.09 44.2603 131.94 43.5703 132.36 43.1203C132.392 43.1126 132.424 43.1122 132.456 43.1193C132.488 43.1263 132.517 43.1406 132.542 43.1609C132.567 43.1812 132.587 43.2071 132.601 43.2365C132.615 43.2659 132.621 43.298 132.62 43.3303C132.035 44.2409 131.128 44.8977 130.08 45.1703C130.02 45.1667 129.962 45.1496 129.91 45.1204C129.857 45.0913 129.812 45.0507 129.778 45.0017C129.743 44.9528 129.72 44.8967 129.71 44.8376C129.7 44.7785 129.704 44.7179 129.72 44.6603L130.72 42.0103C129.72 43.3303 127.88 45.1903 127.1 45.1903C126.51 45.1903 126.43 44.5903 126.68 43.9603L128.01 40.4303C128.12 40.1603 128.13 40.0103 128.01 40.0103C127.89 40.0103 127.01 40.6503 126.64 41.0103C126.609 41.0184 126.577 41.019 126.546 41.012C126.514 41.005 126.485 40.9906 126.461 40.97C126.436 40.9494 126.417 40.9233 126.405 40.8937C126.393 40.8642 126.388 40.8322 126.39 40.8003C127.022 39.9714 127.901 39.3654 128.9 39.0703" fill="white"/>
</g>
</g>
</svg>
