<svg width="22" height="21" viewBox="0 0 22 21" fill="none" xmlns="http://www.w3.org/2000/svg">
<path d="M15.9704 5.9401C15.859 5.9401 15.7522 5.89585 15.6734 5.81708C15.5947 5.73832 15.5504 5.63149 15.5504 5.5201C15.5504 5.40871 15.5947 5.30188 15.6734 5.22311C15.7522 5.14435 15.859 5.1001 15.9704 5.1001" stroke="white" stroke-width="0.84" stroke-linejoin="round"/>
<path d="M15.9703 5.9401C16.0817 5.9401 16.1886 5.89585 16.2673 5.81708C16.3461 5.73832 16.3903 5.63149 16.3903 5.5201C16.3903 5.40871 16.3461 5.30188 16.2673 5.22311C16.1886 5.14435 16.0817 5.1001 15.9703 5.1001" stroke="white" stroke-width="0.84" stroke-linejoin="round"/>
<path d="M6.73059 10.5599C6.73059 11.6738 7.17309 12.7421 7.96074 13.5297C8.7484 14.3174 9.81668 14.7599 10.9306 14.7599C12.0445 14.7599 13.1128 14.3174 13.9004 13.5297C14.6881 12.7421 15.1306 11.6738 15.1306 10.5599C15.1306 9.44595 14.6881 8.37767 13.9004 7.59001C13.1128 6.80236 12.0445 6.35986 10.9306 6.35986C9.81668 6.35986 8.7484 6.80236 7.96074 7.59001C7.17309 8.37767 6.73059 9.44595 6.73059 10.5599Z" stroke="white" stroke-width="0.84" stroke-linejoin="round"/>
<path d="M14.7105 1.73975H7.15047C5.81378 1.73975 4.53184 2.27074 3.58666 3.21593C2.64147 4.16111 2.11047 5.44305 2.11047 6.77975V14.3397C2.11047 15.6764 2.64147 16.9584 3.58666 17.9036C4.53184 18.8487 5.81378 19.3797 7.15047 19.3797H14.7105C16.0472 19.3797 17.3291 18.8487 18.2743 17.9036C19.2195 16.9584 19.7505 15.6764 19.7505 14.3397V6.77975C19.7505 5.44305 19.2195 4.16111 18.2743 3.21593C17.3291 2.27074 16.0472 1.73975 14.7105 1.73975Z" stroke="white" stroke-width="0.84"/>
</svg>
