<svg width="171" height="48" viewBox="0 0 171 48" fill="none" xmlns="http://www.w3.org/2000/svg">
<mask id="mask0_104_62" style="mask-type:luminance" maskUnits="userSpaceOnUse" x="0" y="0" width="171" height="48">
<path d="M170.613 0H0.0243225V47.87H170.613V0Z" fill="white"/>
</mask>
<g mask="url(#mask0_104_62)">
<mask id="mask1_104_62" style="mask-type:luminance" maskUnits="userSpaceOnUse" x="0" y="0" width="171" height="48">
<path d="M170.613 0H0.0243225V47.87H170.613V0Z" fill="white"/>
</mask>
<g mask="url(#mask1_104_62)">
<path d="M29.5591 25.0202V8.16016H23.1926V9.26015H25.6117V18.5902C25.6117 20.3202 25.1562 21.9202 24.3364 23.0802C23.4254 24.3702 22.1298 25.0602 20.5711 25.0602C19.7108 25.0602 19.0731 24.8402 18.6177 24.3902C17.8383 23.6202 17.7371 22.2602 17.7371 21.1702V8.16016H11.816V9.26015H13.7998V21.3502C13.7998 23.1202 14.2249 24.3902 15.0852 25.2502C15.9759 26.1302 17.3525 26.5602 19.2958 26.5602C22.2007 26.5602 24.4274 25.2502 25.6218 22.8702V26.1202H32.1705V25.0202H29.5692H29.5591Z" fill="white"/>
<path d="M41.371 25.02V0H35.1968V1.10001H37.4337V25.02H35.1968V26.12H43.9823V25.02H41.371Z" fill="white"/>
<path d="M53.3347 25.0202V8.16016H47.1605V9.26015H49.3974V25.0202H47.1605V26.1202H55.946V25.0202H53.3347Z" fill="white"/>
<path d="M76.2398 25.0202V8.16016H69.8733V9.26015H72.2924V18.5902C72.2924 20.3202 71.8369 21.9202 71.017 23.0802C70.1061 24.3702 68.8105 25.0602 67.2518 25.0602C66.3915 25.0602 65.7538 24.8402 65.2984 24.3902C64.519 23.6202 64.4178 22.2602 64.4178 21.1702V8.16016H58.4967V9.26015H60.4805V21.3502C60.4805 23.1202 60.8955 24.3902 61.7659 25.2502C62.6566 26.1302 64.0332 26.5602 65.9765 26.5602C68.8814 26.5602 71.1081 25.2502 72.3025 22.8702V26.1202H78.8511V25.0202H76.2499H76.2398Z" fill="white"/>
<path d="M130.674 19.0602C130.674 21.3202 130.107 22.9802 128.933 24.1302C127.566 25.4802 125.4 26.1102 122.131 26.1102H110.107V25.0102H112.637V1.09023H110.107V-0.00976562H121.837C124.338 -0.00976562 126.089 0.530236 127.222 1.64024C128.214 2.62024 128.69 4.04023 128.69 5.99023C128.69 9.06023 126.868 11.0202 123.285 11.8502C126.989 12.3402 130.674 13.6402 130.674 19.0502M124.54 13.7402C123.71 12.9202 122.566 12.5302 121.038 12.5302H117.03V25.0202H120.451C125.41 25.0202 126.078 21.8602 126.078 18.7702C126.078 16.4002 125.572 14.7602 124.55 13.7402M122.87 1.99023C122.273 1.40023 121.443 1.11023 120.339 1.11023H117.03V11.2102H120.016C122.991 11.2102 124.105 9.92023 124.105 6.45023C124.105 5.05023 123.973 3.07023 122.89 1.99023" fill="white"/>
<path d="M169.743 11.5201C168.053 11.2001 167.091 11.3001 166.453 11.3801C163.154 11.7901 161.544 15.3101 161.544 18.7401V24.9901H163.963V26.0901H155.208V25.0201H157.597V9.23011H154.996V8.13011H161.544V14.2601C163.457 10.2101 165.644 8.02011 167.87 8.06011C169.125 8.08011 170.077 8.32011 170.613 8.49011L169.753 11.5201H169.743Z" fill="white"/>
<path d="M145.846 15.5302V18.8802C145.846 21.3402 144.702 25.2402 141.615 25.2402C141.038 25.2402 140.583 25.0702 140.228 24.7202C139.611 24.1102 139.328 22.9802 139.328 21.1702C139.328 18.0002 140.036 17.2502 142.151 16.6202C142.151 16.6202 145.198 15.7202 145.836 15.5302M150.137 24.5802C149.773 24.2202 149.611 23.5202 149.611 22.3202V13.1102C149.611 11.3502 149.216 10.1402 148.356 9.29021C147.283 8.23021 145.471 7.72021 142.799 7.72021C140.815 7.72021 136.2 8.16022 136.2 12.2102C136.2 12.6502 136.321 13.0002 136.554 13.2302C136.848 13.5202 137.293 13.6502 137.981 13.6502C138.67 13.6502 139.145 13.5102 139.449 13.2102C139.763 12.9002 139.915 12.4102 139.915 11.6702C139.915 10.6602 140.137 9.95021 140.593 9.50021C141.058 9.04021 141.777 8.83022 142.9 8.83022C143.761 8.83022 144.388 9.04022 144.813 9.46022C145.562 10.2002 145.664 11.5902 145.664 12.8602V14.3102C144.307 14.7702 143.184 15.0902 141.706 15.4502L139.5 15.9602C136.18 16.7402 134.763 18.3102 134.763 21.2002C134.763 23.1502 135.178 24.4602 136.058 25.3302C136.898 26.1602 138.153 26.5602 139.894 26.5602C142.566 26.5602 144.206 25.7702 145.512 23.8902C146.149 25.9602 147.627 26.1302 149.621 26.1302H152.506V25.0302C151.22 25.0302 150.563 25.0102 150.137 24.5902" fill="white"/>
<path d="M93.7096 12.9505V8.88047C91.4829 8.17047 90.1468 7.73047 88.2844 7.73047C85.3087 7.73047 82.3127 9.43047 82.3127 13.2305C82.3127 16.6305 85.2379 17.7105 87.8087 18.6505C90.0355 19.4705 92.1509 20.2405 92.1509 22.3705C92.1509 24.3805 90.1367 25.4605 88.2541 25.4605C85.4909 25.4605 83.6083 23.7405 83.1933 20.6605H81.8066V25.4105C84.1953 26.2405 86.0881 26.5605 88.1832 26.5605C90.2784 26.5605 92.4343 25.7905 93.74 24.5105C94.7218 23.5405 95.2177 22.3405 95.2177 20.9505C95.2177 16.7005 92.0092 15.6305 89.1853 14.6905C87.0294 13.9705 85.167 13.3505 85.167 11.4505C85.167 10.7805 85.3796 10.2405 85.7844 9.83047C86.3006 9.32047 87.1205 9.05047 88.1124 9.05047C89.2662 9.05047 90.2075 9.37047 90.8452 9.89047C92.1813 11.0505 92.4849 12.9605 92.4849 12.9605H93.7096V12.9505Z" fill="white"/>
<path d="M51.3711 4.89006C52.6565 4.89006 53.6889 3.86006 53.6889 2.60006C53.6889 1.34006 52.6464 0.310059 51.3711 0.310059C50.0958 0.310059 49.0532 1.34006 49.0532 2.60006C49.0532 3.86006 50.0958 4.89006 51.3711 4.89006Z" fill="white"/>
<path d="M139.469 4.89006C140.755 4.89006 141.787 3.86006 141.787 2.60006C141.787 1.34006 140.755 0.310059 139.469 0.310059C138.184 0.310059 137.151 1.34006 137.151 2.60006C137.151 3.86006 138.194 4.89006 139.469 4.89006Z" fill="white"/>
<path d="M146.818 4.89006C148.103 4.89006 149.135 3.86006 149.135 2.60006C149.135 1.34006 148.103 0.310059 146.818 0.310059C145.532 0.310059 144.5 1.34006 144.5 2.60006C144.5 3.86006 145.542 4.89006 146.818 4.89006Z" fill="white"/>
<path d="M0.429185 0V1.10001H2.81788V26.15C2.70654 29.45 2.29156 31.45 0.510158 31.96L0.0243225 32.08V33.12C0.0243225 33.12 1.10733 33.18 2.19034 32.96C5.35839 32.32 7.12967 29.93 7.20052 26.23V0H0.429185Z" fill="white"/>
<path d="M29.5591 25.0202V8.16016H23.1926V9.26015H25.6117V18.5902C25.6117 20.3202 25.1562 21.9102 24.3364 23.0802C23.4254 24.3702 22.1298 25.0602 20.5711 25.0602C19.7108 25.0602 19.0731 24.8402 18.6177 24.3902C17.8383 23.6202 17.7371 22.2602 17.7371 21.1702V8.16016H11.816V9.26015H13.7998V21.3402C13.7998 23.1102 14.2148 24.3802 15.0852 25.2402C15.9861 26.1202 17.3626 26.5502 19.2958 26.5502C22.2007 26.5502 24.4274 25.2402 25.6218 22.8602V26.1102H32.1705V25.0102H29.5692L29.5591 25.0202Z" fill="white"/>
<path d="M41.371 25.02V0H35.1867V1.10001H37.4337V25.02H35.1867V26.12H43.9823V25.02H41.371Z" fill="white"/>
<path d="M53.3347 25.0202V8.16016H47.1605V9.26015H49.3974V25.0202H47.1605V26.1202H55.946V25.0202H53.3347Z" fill="white"/>
<path d="M76.2398 25.0202V8.16016H69.8733V9.26015H72.2924V18.5902C72.2924 20.3202 71.8369 21.9102 71.017 23.0802C70.1061 24.3702 68.8105 25.0602 67.2518 25.0602C66.3915 25.0602 65.7538 24.8402 65.2984 24.3902C64.519 23.6202 64.4178 22.2602 64.4178 21.1702V8.16016H58.4967V9.26015H60.4805V21.3402C60.4805 23.1102 60.8955 24.3802 61.7659 25.2402C62.6667 26.1202 64.0433 26.5502 65.9765 26.5502C68.8814 26.5502 71.1081 25.2402 72.3025 22.8602V26.1102H78.8511V25.0102H76.2499L76.2398 25.0202Z" fill="white"/>
<path d="M130.674 19.06C130.674 21.32 130.107 22.98 128.933 24.14C127.566 25.49 125.4 26.12 122.131 26.12H110.107V25.02H112.637V1.10001H110.107V0H121.837C124.338 0 126.089 0.540002 127.222 1.65C128.214 2.63 128.69 4.05 128.69 6C128.69 9.07 126.868 11.03 123.285 11.86C126.989 12.35 130.674 13.65 130.674 19.06ZM124.54 13.74C123.71 12.92 122.566 12.52 121.038 12.52H117.03V25.01H120.451C125.41 25.01 126.078 21.85 126.078 18.76C126.078 16.39 125.572 14.75 124.55 13.73M122.87 1.99001C122.273 1.39001 121.443 1.10001 120.339 1.10001H117.03V11.2H120.016C122.991 11.2 124.105 9.91 124.105 6.44C124.105 5.04 123.973 3.06 122.89 1.98" fill="white"/>
<path d="M169.743 11.5201C168.053 11.2001 167.091 11.3001 166.453 11.3801C163.154 11.7901 161.544 15.3101 161.544 18.7401V24.9901H163.963V26.0901H155.208V25.0201H157.597V9.23011H154.996V8.13011H161.544V14.2601C163.457 10.2101 165.644 8.02011 167.87 8.06011C169.125 8.08011 170.077 8.31011 170.613 8.49011L169.753 11.5201H169.743Z" fill="white"/>
<path d="M145.856 15.5302V18.8802C145.856 21.3402 144.712 25.2402 141.625 25.2402C141.048 25.2402 140.593 25.0702 140.239 24.7202C139.621 24.1102 139.338 22.9802 139.338 21.1702C139.338 18.0002 140.046 17.2502 142.162 16.6202C142.162 16.6202 145.208 15.7202 145.846 15.5302M150.137 24.5802C149.773 24.2202 149.611 23.5202 149.611 22.3202V13.1102C149.611 11.3502 149.216 10.1402 148.356 9.29021C147.283 8.23021 145.471 7.72021 142.799 7.72021C140.815 7.72021 136.2 8.16022 136.2 12.2102C136.2 12.6502 136.321 13.0002 136.554 13.2302C136.848 13.5202 137.293 13.6502 137.981 13.6502C138.67 13.6502 139.145 13.5102 139.449 13.2102C139.763 12.9002 139.915 12.4102 139.915 11.6702C139.915 10.6602 140.137 9.95021 140.593 9.50021C141.058 9.04021 141.777 8.83022 142.9 8.83022C143.761 8.83022 144.388 9.04022 144.813 9.46022C145.562 10.2002 145.664 11.5902 145.664 12.8602V14.3102C144.307 14.7702 143.194 15.0902 141.706 15.4502L139.5 15.9602C136.18 16.7402 134.763 18.3102 134.763 21.2102C134.763 23.1502 135.178 24.4702 136.058 25.3402C136.898 26.1702 138.153 26.5702 139.894 26.5702C142.566 26.5702 144.206 25.7802 145.512 23.9002C146.149 25.9702 147.627 26.1402 149.621 26.1402H152.506V25.0402C151.22 25.0402 150.563 25.0202 150.137 24.6002" fill="white"/>
<path d="M93.7096 12.9505V8.88047C91.4829 8.17047 90.1468 7.73047 88.2844 7.73047C85.3087 7.73047 82.3127 9.43047 82.3127 13.2305C82.3127 16.6305 85.2379 17.7105 87.8087 18.6505C90.0355 19.4705 92.1509 20.2405 92.1509 22.3705C92.1509 24.3805 90.1367 25.4605 88.2541 25.4605C85.4909 25.4605 83.6083 23.7505 83.1933 20.6605H81.8066V25.4105C84.1953 26.2405 86.0881 26.5605 88.1832 26.5605C90.2784 26.5605 92.4343 25.7905 93.74 24.5105C94.7218 23.5405 95.2177 22.3405 95.2177 20.9505C95.2177 16.7005 92.0092 15.6305 89.1853 14.6905C87.0294 13.9705 85.167 13.3505 85.167 11.4505C85.167 10.7805 85.3796 10.2405 85.7945 9.83047C86.3107 9.32047 87.1306 9.05047 88.1225 9.05047C89.2764 9.05047 90.2177 9.37047 90.8553 9.89047C92.1914 11.0505 92.495 12.9605 92.495 12.9605H93.7197L93.7096 12.9505Z" fill="white"/>
<path d="M51.3711 4.89006C52.6565 4.89006 53.6889 3.86006 53.6889 2.60006C53.6889 1.34006 52.6464 0.310059 51.3711 0.310059C50.0958 0.310059 49.0532 1.34006 49.0532 2.60006C49.0532 3.86006 50.0958 4.89006 51.3711 4.89006Z" fill="white"/>
<path d="M139.469 4.89006C140.755 4.89006 141.787 3.86006 141.787 2.60006C141.787 1.34006 140.755 0.310059 139.469 0.310059C138.184 0.310059 137.151 1.34006 137.151 2.60006C137.151 3.86006 138.194 4.89006 139.469 4.89006Z" fill="white"/>
<path d="M146.818 4.89006C148.103 4.89006 149.135 3.86006 149.135 2.60006C149.135 1.34006 148.103 0.310059 146.818 0.310059C145.532 0.310059 144.5 1.34006 144.5 2.60006C144.5 3.86006 145.542 4.89006 146.818 4.89006Z" fill="white"/>
<path d="M0.429185 0V1.10001H2.81788V26.15C2.70654 29.45 2.29156 31.45 0.510158 31.96L0.0243225 32.08V33.12C0.0243225 33.12 1.10733 33.18 2.19034 32.96C5.35839 32.32 7.13979 29.93 7.20052 26.23V0H0.429185Z" fill="white"/>
<path d="M15.2877 43.9901V47.6601H14.3767V43.9801L11.4313 39.3701H12.4637L14.8626 43.2201L17.2411 39.3701H18.2432L15.2877 43.9901Z" fill="white"/>
<path d="M18.4962 43.5205C18.4962 41.0305 20.4497 39.2305 22.7169 39.2305C24.9841 39.2305 26.8667 41.0305 26.8667 43.5205C26.8667 46.0105 24.9133 47.8005 22.646 47.8005C20.3788 47.8005 18.4962 46.0105 18.4962 43.5205ZM25.8748 43.5205C25.8748 41.5605 24.5489 40.0505 22.6865 40.0505C20.8242 40.0505 19.4881 41.5705 19.4881 43.5205C19.4881 45.4705 20.814 46.9905 22.6865 46.9905C24.559 46.9905 25.8748 45.4705 25.8748 43.5205Z" fill="white"/>
<path d="M28.5874 44.6901V39.3701H29.4983V44.6201C29.4983 46.2801 30.4194 46.9901 31.7352 46.9901C33.051 46.9901 33.9923 46.2801 33.9923 44.6201V39.3701H34.9134V44.6901C34.9134 46.6101 33.6178 47.8001 31.7453 47.8001C29.8728 47.8001 28.5975 46.6801 28.5975 44.6901" fill="white"/>
<path d="M38.1827 47.6601H37.2717V39.4501C37.8891 39.3701 38.5066 39.3101 39.2049 39.3101C41.371 39.3101 42.4337 40.3701 42.4337 41.8001C42.4337 42.9501 41.7758 43.8301 40.6017 44.2001L43.041 47.6601H41.9277L39.6908 44.3901C39.5086 44.4001 39.3264 44.4101 39.1341 44.4101C38.8608 44.4101 38.456 44.4001 38.1827 44.3901V47.6601ZM38.1827 43.5901C38.456 43.6201 38.8811 43.6501 39.2049 43.6501C40.7738 43.6501 41.4519 42.9401 41.4519 41.8601C41.4519 40.8901 40.7232 40.1301 39.3467 40.1301C38.962 40.1301 38.4863 40.1501 38.1928 40.2201V43.5901H38.1827Z" fill="white"/>
<path d="M55.1262 47.8403L54.944 47.8703L52.2921 41.2603L49.6808 47.8703L49.4986 47.8403L47.1807 39.3703H48.1119L49.7719 45.5303L52.2517 39.3003H52.3731L54.8934 45.5403L56.5128 39.3703H57.444L55.1262 47.8403Z" fill="white"/>
<path d="M59.1141 47.6601V39.3701H64.0332V40.1801H60.0351V43.0501H63.6283V43.8601H60.0351V46.8501H64.0332V47.6601H59.1141Z" fill="white"/>
<path d="M71.8976 47.6604L70.9057 45.3604H67.1506L66.1587 47.6604H65.2073L68.9725 39.1704H69.1243L72.8895 47.6604H71.9077H71.8976ZM69.0231 41.0004L67.4745 44.6104H70.5616L69.013 41.0004H69.0231Z" fill="white"/>
<path d="M74.347 47.6601V39.3701H75.2681V46.8501H79.2661V47.6601H74.347Z" fill="white"/>
<path d="M82.7682 40.1901V47.6601H81.8573V40.1901H79.0536V39.3701H85.5617V40.1901H82.7682Z" fill="white"/>
<path d="M87.1913 39.3701H88.1023V43.0501H92.5962V39.3701H93.5072V47.6601H92.5962V43.8601H88.1023V47.6601H87.1913V39.3701Z" fill="white"/>
<path d="M106.453 47.6604L106.321 41.4204L103.345 45.9104H103.224L100.218 41.4504L100.117 47.6604H99.1955L99.5093 39.2104L99.6813 39.1904L103.325 44.6304L106.878 39.1904L107.06 39.2104L107.374 47.6604H106.453Z" fill="white"/>
<path d="M115.451 47.6604L114.459 45.3604H110.704L109.712 47.6604H108.76L112.526 39.1704H112.677L116.443 47.6604H115.461H115.451ZM112.576 41.0004L111.028 44.6104H114.115L112.566 41.0004H112.576Z" fill="white"/>
<path d="M124.216 47.8404L118.761 41.3504V47.6604H117.85V39.2304L118.032 39.1904L123.416 45.5804V39.3704H124.327V47.8104L124.216 47.8404Z" fill="white"/>
<path d="M132.435 47.6604L131.443 45.3604H127.688L126.686 47.6604H125.734L129.5 39.1704H129.651L133.417 47.6604H132.435ZM129.56 41.0004L128.012 44.6104H131.109L129.56 41.0004Z" fill="white"/>
<path d="M141.564 43.5605V46.8305C140.714 47.4505 139.743 47.8005 138.498 47.8005C136.17 47.8005 134.004 46.1105 134.004 43.5205C134.004 40.9305 136.23 39.2305 138.386 39.2305C139.773 39.2305 140.643 39.6305 141.524 40.2405L141.038 40.9505C140.269 40.4005 139.307 40.0505 138.396 40.0505C136.24 40.0505 134.996 41.6905 134.996 43.5205C134.996 45.4805 136.544 46.9905 138.498 46.9905C139.368 46.9905 140.137 46.7805 140.643 46.4805V44.4005H138.427V43.5505H141.564V43.5605Z" fill="white"/>
<path d="M143.822 47.6601V39.3701H148.731V40.1801H144.743V43.0501H148.336V43.8601H144.743V46.8501H148.731V47.6601H143.822Z" fill="white"/>
<path d="M151.575 47.6601H150.664V39.4501C151.281 39.3701 151.899 39.3101 152.597 39.3101C154.763 39.3101 155.826 40.3701 155.826 41.8001C155.826 42.9501 155.178 43.8301 153.994 44.2001L156.433 47.6601H155.32L153.083 44.3901C152.901 44.4001 152.718 44.4101 152.526 44.4101C152.253 44.4101 151.848 44.4001 151.575 44.3901V47.6601ZM151.575 43.5901C151.848 43.6201 152.273 43.6501 152.597 43.6501C154.166 43.6501 154.844 42.9401 154.844 41.8601C154.844 40.8901 154.115 40.1301 152.739 40.1301C152.354 40.1301 151.878 40.1501 151.585 40.2201V43.5901H151.575Z" fill="white"/>
</g>
</g>
</svg>
