<svg width="87" height="87" viewBox="0 0 87 87" fill="none" xmlns="http://www.w3.org/2000/svg">
<mask id="mask0_104_36" style="mask-type:luminance" maskUnits="userSpaceOnUse" x="0" y="0" width="87" height="87">
<path d="M86.4894 0.839844H0.48938V86.8398H86.4894V0.839844Z" fill="white"/>
</mask>
<g mask="url(#mask0_104_36)">
<mask id="mask1_104_36" style="mask-type:luminance" maskUnits="userSpaceOnUse" x="0" y="0" width="87" height="87">
<path d="M86.4894 0.839844H0.48938V86.8398H86.4894V0.839844Z" fill="white"/>
</mask>
<g mask="url(#mask1_104_36)">
<path d="M43.4896 86.74C35.0048 86.74 26.7105 84.2239 19.6557 79.51C12.6008 74.7961 7.10219 68.096 3.85519 60.2571C0.608188 52.4181 -0.241376 43.7924 1.41393 35.4706C3.06924 27.1488 7.15507 19.5048 13.1547 13.5051C19.1544 7.50541 26.7985 3.41958 35.1202 1.76427C43.442 0.108967 52.0678 0.958527 59.9067 4.20553C67.7457 7.45253 74.4457 12.9511 79.1597 20.006C83.8736 27.0609 86.3896 35.3551 86.3896 43.84C86.3632 55.2096 81.8349 66.1061 73.7953 74.1457C65.7557 82.1853 54.8593 86.7136 43.4896 86.74ZM43.4896 81.83C51.0053 81.83 58.3522 79.6013 64.6013 75.4258C70.8503 71.2503 75.7209 65.3155 78.597 58.3719C81.4732 51.4283 82.2257 43.7878 80.7595 36.4165C79.2932 29.0452 75.6741 22.2743 70.3597 16.9599C65.0453 11.6455 58.2743 8.02636 50.903 6.56012C43.5318 5.09388 35.8912 5.84641 28.9476 8.72254C22.0041 11.5987 16.0693 16.4692 11.8938 22.7183C7.71828 28.9674 5.48962 36.3143 5.48962 43.83C5.50549 53.9033 9.51414 63.5595 16.6371 70.6825C23.76 77.8054 33.4163 81.8141 43.4896 81.83ZM60.4896 42.24H51.5996V26.65H60.4896V29.47H55.2296V32.84H58.9896V35.44H55.2296V39.44H60.4896V42.24ZM30.9296 42.53C34.4596 42.53 36.7296 40.78 36.7296 36.17V26.65H33.0596V36.16C33.0596 38.16 32.4896 39.24 30.8996 39.24C29.3096 39.24 28.7396 38.24 28.7396 36.16V26.65H25.1096V36.17C25.1096 40.78 27.3596 42.53 30.8996 42.53M66.1696 42.24H62.4896V26.66H67.7396C71.9596 26.66 73.1096 29.13 73.1096 31.66C73.1096 33.31 72.4296 34.66 70.3396 35.93L73.9896 42.19H71.2096C70.2096 42.19 69.7596 41.65 69.2096 40.77L67.2096 37.36L66.2096 37.7L66.1696 42.24ZM66.1696 35.24C69.0896 34.24 69.5696 33.41 69.5696 31.75C69.5696 29.93 68.2296 29.5 67.0296 29.5H66.1696V35.24ZM43.2996 52.24C43.2996 56.7 40.4596 60.31 36.0396 60.31C31.6196 60.31 28.7896 56.7 28.7896 52.24C28.7896 47.78 31.6296 44.16 36.0396 44.16C40.4496 44.16 43.2996 47.78 43.2996 52.24ZM39.7196 52.24C39.7196 49.51 38.2896 47.29 36.0396 47.29C33.7896 47.29 32.3696 49.51 32.3696 52.24C32.3696 54.97 33.7996 57.24 36.0396 57.24C38.2796 57.24 39.7196 55.02 39.7196 52.24ZM17.3696 39.56C15.7662 39.5091 14.2013 39.0551 12.8196 38.24V41.45C14.4073 42.2684 16.1869 42.6416 17.9696 42.53C21.2596 42.4 23.1796 40.32 23.1796 37.66C23.1796 31.9 16.5396 33.66 16.5396 30.83C16.5396 30.08 17.1396 29.16 18.6896 29.09C20.0776 29.0987 21.4316 29.5199 22.5796 30.3V27.21C21.1214 26.4744 19.4862 26.1625 17.8596 26.31C14.4596 26.45 12.6396 28.86 12.6396 31.11C12.6396 36.77 19.1796 35 19.1796 38.03C19.1796 38.85 18.6896 39.52 17.3696 39.56ZM70.5496 44.42H66.6396L62.2096 51.33V44.42H58.5696V60H62.2096V52.65L66.2096 58.58C66.8596 59.52 67.2896 60 68.2096 60H71.3696L65.6596 51.64L70.5496 44.42ZM27.8396 55.48C27.8396 57.89 26.1196 60 22.6196 60H16.2396V44.42H21.7596C24.3396 44.42 26.8696 45.71 26.8696 48.69C26.8786 49.2864 26.7432 49.8761 26.4751 50.4089C26.2069 50.9417 25.814 51.4018 25.3296 51.75C26.1024 52.0054 26.7683 52.5104 27.2226 53.1856C27.677 53.8608 27.894 54.6679 27.8396 55.48ZM19.8396 50.9H21.6196C23.0696 50.9 23.2996 49.76 23.2996 48.85C23.2996 47.77 22.8596 46.93 21.2996 46.93H19.8796L19.8396 50.9ZM24.0496 55.16C24.0496 53.49 23.0496 53.16 21.7696 53.16H19.8796V57.32H21.8796C22.1768 57.3606 22.4793 57.3314 22.7632 57.2348C23.0471 57.1381 23.3046 56.9766 23.5152 56.7631C23.7259 56.5496 23.8838 56.2899 23.9766 56.0047C24.0693 55.7194 24.0943 55.4165 24.0496 55.12M44.7196 52.18C44.6843 53.2565 44.8715 54.3288 45.2695 55.3298C45.6675 56.3307 46.2677 57.2388 47.0327 57.9972C47.7976 58.7555 48.7108 59.3479 49.7152 59.7373C50.7195 60.1266 51.7934 60.3046 52.8696 60.26C54.1264 60.3145 55.3714 59.998 56.4496 59.35V56C55.3988 56.7317 54.1501 57.1259 52.8696 57.13C50.4196 57.13 48.5096 55.36 48.5096 52.24C48.5096 49.12 50.4196 47.35 52.8696 47.35C54.1599 47.3409 55.4225 47.7246 56.4896 48.45V45C55.4096 44.3563 54.1659 44.0401 52.9096 44.09C51.8325 44.0453 50.7578 44.2235 49.7527 44.6135C48.7477 45.0034 47.834 45.5967 47.0689 46.3562C46.3038 47.1156 45.7038 48.0249 45.3064 49.027C44.909 50.0292 44.7229 51.1026 44.7596 52.18M46.2596 31.66C46.329 32.3149 46.167 32.9734 45.8017 33.5213C45.4364 34.0693 44.8908 34.4721 44.2596 34.66L41.9296 35.6V38.42L44.2596 37.49C48.4996 35.92 49.7896 33.92 49.7896 31.69C49.7896 29.12 48.6396 26.69 44.4196 26.69H39.2196V42.24H42.8596V29.45H43.7196C44.9196 29.45 46.2596 29.87 46.2596 31.7" fill="white"/>
</g>
</g>
</svg>
