<?xml version="1.0" encoding="UTF-8"?>
<svg id="uuid-09e3863a-646b-41bc-adb7-922cc5e054ac" data-name="Calque 2" xmlns="http://www.w3.org/2000/svg" xmlns:xlink="http://www.w3.org/1999/xlink" viewBox="0 0 189.89 56.08">
  <defs>
    <mask id="uuid-3607493a-a1c6-4f3b-a263-9346ddc56825" data-name="mask" x="0" y="0" width="189.89" height="56.08" maskUnits="userSpaceOnUse">
      <g id="uuid-7e8ffd79-b9c8-433e-85f7-05aa5dc549e0" data-name="mask0 104 12">
        <path d="M189.89.02H0v56.05h189.88V.02Z" style="fill: #fff;"/>
      </g>
    </mask>
    <mask id="uuid-36fe7a01-e4cc-4730-903d-77f2149ce0f9" data-name="mask-1" x="0" y="0" width="189.89" height="56.08" maskUnits="userSpaceOnUse">
      <g id="uuid-56f30c4b-cdef-4414-a18d-775b08a04e59" data-name="mask1 104 12">
        <path d="M189.89.02H0v56.05h189.88V.02Z" style="fill: #fff;"/>
      </g>
    </mask>
  </defs>
  <g id="uuid-2d341804-dfee-4553-b71b-46c71f98a52d" data-name="Calque 1">
    <g style="mask: url(#uuid-3607493a-a1c6-4f3b-a263-9346ddc56825);">
      <g style="mask: url(#uuid-36fe7a01-e4cc-4730-903d-77f2149ce0f9);">
        <g>
          <path d="M124.8,22.85c-1.22-.47-2.51-.73-3.81-.78-1.45,0-2.59.38-2.59,1.71,0,3.15,8.03,1.21,8.03,7.69,0,4.38-3.53,6.05-7.51,6.05-1.81,0-3.6-.27-5.33-.8l.32-3.85c1.56.52,3.18.82,4.82.89,1.54,0,2.81-.5,2.81-1.84,0-3.37-8.03-1.21-8.03-7.66,0-4.04,3.37-5.69,7.08-5.69,1.72-.02,3.42.25,5.05.8l-.84,3.46v.02ZM110.13,22.85c-1.22-.46-2.51-.73-3.81-.78-1.45,0-2.62.38-2.62,1.71,0,3.15,8.06,1.21,8.06,7.69,0,4.38-3.56,6.05-7.51,6.05-1.82,0-3.64-.28-5.38-.8l.35-3.85c1.57.52,3.2.82,4.85.89,1.5,0,2.77-.5,2.77-1.84,0-3.37-8.06-1.21-8.06-7.66,0-4.04,3.4-5.69,7.08-5.69,1.74-.02,3.46.25,5.11.8l-.84,3.46v.02ZM184.34,18.56c3.5,0,5.54,1.91,5.54,6.06v12.52h-4.66v-11.53c0-1.87-.54-3.11-2.5-3.11s-3.72,1.75-3.72,4.89v9.79h-4.56v-11.56c0-1.75-.57-3.11-2.56-3.11s-3.68,1.94-3.68,5.08v9.59h-4.72v-18.21c3.08-.38,4.24.89,4.38,2.92,1.11-2.09,3.29-3.36,5.64-3.31,3.24,0,4.53,1.81,5.01,3.53.78-1.81,2.81-3.53,5.86-3.53h-.02l-.02-.02ZM89.36,18.94c-1,5.4-3.59,13.92-5.23,18.2h-4.92l-3.47-12.11h-.06l-3.47,12.11h-4.88c-1.58-4.23-4.41-13.03-5.23-18.2h4.63l3.05,12.52h.07l3.65-12.52h4.63l3.56,12.42h.07l3.08-12.42h4.5ZM59.35,22.85c-1.22-.47-2.51-.73-3.82-.78-1.45,0-2.55.38-2.55,1.71,0,3.15,8,1.21,8,7.69,0,4.38-3.53,6.05-7.51,6.05-1.8,0-3.6-.27-5.32-.8l.28-3.85c1.57.52,3.2.82,4.85.89,1.54,0,2.8-.5,2.8-1.84,0-3.37-8-1.21-8-7.66,0-4.04,3.37-5.69,7.08-5.69,1.72-.02,3.42.25,5.05.8l-.87,3.46.02.02ZM151.96,37.52c-5.14,0-8.73-2.83-8.73-9.18,0-5.69,3.78-9.79,9.26-9.79,5.11,0,8.41,2.9,8.41,9.08s-3.59,9.88-8.94,9.88h0ZM152.15,22.57c-2.07,0-4.07,1.55-4.07,5.55,0,3.46,1.29,5.4,4.01,5.4,2.3,0,4.07-1.87,4.07-5.55s-1.26-5.4-4.01-5.4ZM91.48,37.15h4.63v-18.21c-2.17-.22-4.63.38-4.63,3.81v14.39h0ZM94,16.66c1.61.06,2.94-1.21,3-2.82v-.07c-.07-1.62-1.43-2.88-3.03-2.82-1.52.06-2.73,1.29-2.8,2.82.02,1.58,1.27,2.85,2.83,2.89ZM137.23,37.46c-5.35,0-8.85-2.7-8.85-9.15,0-5.47,3-9.69,9.58-9.69,1.51,0,3,.26,4.41.76l-1,3.81c-1.04-.41-2.15-.64-3.27-.67-3.37,0-4.76,2.22-4.76,5.55s1.26,5.4,4.57,5.4c1.26,0,2.5-.28,3.65-.8l.54,3.75c-.9.58-2.83,1.02-4.84,1.02h-.02v.02Z" style="fill: #fff;"/>
          <path d="M15.5,50.55c-8.58-1.95-11.42-8.73-7.83-16.49,3.28,3.23,4.85,6.36,5.8,10.79.38,1.71.95,4.15,2.04,5.7M17.89,56.08c10.45-.91,22.63-9.37,20.26-21.14-3.29-12.5-19.44-17.9-26.29-27.89C5.82,10.11-.89,16.1.1,22.53c1.82,8.3,12.04,8.95,14.61,21.47.51,2.18,1.21,5.94,3.18,6.88v5.2h0ZM17.89,11.59V.03c-.11-.04-.29-.03-.41-.02-2.05.1-4.62.94-5.13,3.07-.19.98-.05,2.04.59,3.04,1.58,2.5,4.38,4.97,4.95,5.47ZM33.19,15.05c-1.81-5.59-7.91-10.15-13.9-10.11v7.84c4.46,3.71,9.69,7.13,13.77,11.26.86-2.95,1.1-6.01.14-8.99M17.89,14.8c-1.14.25-1.97,1.1-2.45,2.19-.44,1.01-.71,2.08-1.31,3-1.08,1.67-2.94,1.76-4.48,2.76-1.76,1.12-2.25,3.02-1.13,4.82,1.75,2.68,5.26,3.33,6.14,6.83.53,2.23.67,5.21,3.23,6.02V14.8Z" style="fill: #fff; fill-rule: evenodd;"/>
        </g>
      </g>
    </g>
  </g>
</svg>