<?xml version="1.0" encoding="UTF-8"?> <svg preserveAspectRatio="xMidYMid meet" xmlns="http://www.w3.org/2000/svg" xmlns:xlink="http://www.w3.org/1999/xlink" id="D_Main_Partners_-_Logos" width="192.63" height="150" viewBox="0 0 192.63 150"><defs><clipPath id="clippath"><rect x=".57" y="71.22" width="191.5" height="56.05" style="fill:none;"></rect></clipPath><clipPath id="clippath-1"><rect x=".57" y="71.22" width="191.5" height="56.05" style="fill:none;"></rect></clipPath></defs><g id="Swisscom"><g style="clip-path:url(#clippath);"><g style="clip-path:url(#clippath-1);"><path d="M126.43,94.05c-1.23-.47-2.53-.73-3.84-.78-1.46,0-2.61.38-2.61,1.71,0,3.15,8.1,1.21,8.1,7.69,0,4.38-3.56,6.05-7.57,6.05-1.82,0-3.63-.27-5.37-.8l.32-3.85c1.57.52,3.21.82,4.86.89,1.55,0,2.83-.5,2.83-1.84,0-3.37-8.1-1.21-8.1-7.66,0-4.04,3.4-5.69,7.14-5.69,1.73-.02,3.45.25,5.09.8l-.85,3.46ZM111.63,94.05c-1.23-.46-2.53-.73-3.84-.78-1.46,0-2.64.38-2.64,1.71,0,3.15,8.13,1.21,8.13,7.69,0,4.38-3.59,6.05-7.57,6.05-1.84,0-3.67-.28-5.43-.8l.35-3.85c1.58.52,3.23.82,4.89.89,1.51,0,2.79-.5,2.79-1.84,0-3.37-8.13-1.21-8.13-7.66,0-4.04,3.43-5.69,7.14-5.69,1.75-.02,3.49.25,5.15.8l-.85,3.46ZM186.48,89.76c3.53,0,5.59,1.91,5.59,6.06v12.52h-4.7v-11.53c0-1.87-.54-3.11-2.52-3.11s-3.75,1.75-3.75,4.89v9.79h-4.6v-11.56c0-1.75-.58-3.11-2.58-3.11s-3.71,1.94-3.71,5.08v9.59h-4.76v-18.21c3.11-.38,4.28.89,4.42,2.92,1.12-2.09,3.32-3.36,5.69-3.31,3.27,0,4.57,1.81,5.05,3.53.79-1.81,2.83-3.53,5.91-3.53h-.02ZM90.69,90.14c-1.01,5.4-3.62,13.92-5.27,18.2h-4.96l-3.5-12.11h-.06l-3.5,12.11h-4.92c-1.59-4.23-4.45-13.03-5.27-18.2h4.67l3.08,12.52h.07l3.68-12.52h4.67l3.59,12.42h.07l3.11-12.42h4.54ZM60.42,94.05c-1.23-.47-2.53-.73-3.85-.78-1.46,0-2.57.38-2.57,1.71,0,3.15,8.07,1.21,8.07,7.69,0,4.38-3.56,6.05-7.57,6.05-1.82,0-3.63-.27-5.37-.8l.28-3.85c1.58.52,3.23.82,4.89.89,1.55,0,2.82-.5,2.82-1.84,0-3.37-8.07-1.21-8.07-7.66,0-4.04,3.4-5.69,7.14-5.69,1.73-.02,3.45.25,5.09.8l-.88,3.46ZM153.82,108.72c-5.18,0-8.8-2.83-8.8-9.18,0-5.69,3.81-9.79,9.34-9.79,5.15,0,8.48,2.9,8.48,9.08s-3.62,9.88-9.02,9.88h0ZM154.01,93.77c-2.09,0-4.1,1.55-4.1,5.55,0,3.46,1.3,5.4,4.04,5.4,2.32,0,4.1-1.87,4.1-5.55s-1.27-5.4-4.04-5.4h0ZM92.82,108.35h4.67v-18.21c-2.19-.22-4.67.38-4.67,3.81v14.39ZM95.37,87.86c1.62.06,2.97-1.21,3.03-2.82,0-.02,0-.05,0-.07-.07-1.62-1.44-2.88-3.06-2.82-1.53.06-2.75,1.29-2.82,2.82.02,1.58,1.28,2.85,2.85,2.89M138.96,108.66c-5.4,0-8.93-2.7-8.93-9.15,0-5.47,3.03-9.69,9.66-9.69,1.52,0,3.02.26,4.45.76l-1.01,3.81c-1.05-.41-2.17-.64-3.3-.67-3.4,0-4.8,2.22-4.8,5.55s1.27,5.4,4.61,5.4c1.27-.01,2.52-.28,3.68-.8l.54,3.75c-.91.58-2.85,1.02-4.88,1.02h-.02Z" style="fill:#fff;"></path><path d="M16.2,121.75c-8.65-1.95-11.52-8.73-7.9-16.49,3.31,3.23,4.89,6.36,5.85,10.79.38,1.71.96,4.15,2.06,5.7M18.61,127.28c10.54-.91,22.82-9.37,20.43-21.14-3.32-12.5-19.61-17.9-26.51-27.89-6.1,3.06-12.86,9.05-11.87,15.48,1.84,8.3,12.14,8.95,14.73,21.47.51,2.18,1.22,5.94,3.21,6.88v5.2ZM18.61,82.79v-11.56c-.11-.04-.29-.03-.41-.02-2.07.1-4.66.94-5.17,3.07-.19.98-.05,2.04.59,3.04,1.59,2.5,4.42,4.97,4.99,5.47M34.04,86.25c-1.83-5.59-7.98-10.15-14.02-10.11v7.84c4.5,3.71,9.77,7.13,13.89,11.26.87-2.95,1.11-6.01.14-8.99M18.61,86c-1.15.25-1.99,1.1-2.47,2.19-.44,1.01-.72,2.08-1.32,3-1.09,1.67-2.97,1.76-4.52,2.76-1.78,1.12-2.27,3.02-1.14,4.82,1.76,2.68,5.3,3.33,6.19,6.83.53,2.23.68,5.21,3.26,6.02v-25.62Z" style="fill:#fff; fill-rule:evenodd;"></path></g></g></g></svg> 