<svg width="192" height="150" viewBox="0 0 192 150" fill="none" xmlns="http://www.w3.org/2000/svg">
<mask id="mask0_104_12" style="mask-type:luminance" maskUnits="userSpaceOnUse" x="1" y="71" width="190" height="57">
<path d="M190.934 71.2202H1.05457V127.27H190.934V71.2202Z" fill="white"/>
</mask>
<g mask="url(#mask0_104_12)">
<mask id="mask1_104_12" style="mask-type:luminance" maskUnits="userSpaceOnUse" x="1" y="71" width="190" height="57">
<path d="M190.934 71.2202H1.05457V127.27H190.934V71.2202Z" fill="white"/>
</mask>
<g mask="url(#mask1_104_12)">
<path d="M125.85 94.05C124.63 93.58 123.341 93.32 122.042 93.27C120.594 93.27 119.454 93.65 119.454 94.98C119.454 98.13 127.486 96.19 127.486 102.67C127.486 107.05 123.956 108.72 119.98 108.72C118.175 108.72 116.38 108.45 114.655 107.92L114.972 104.07C116.529 104.59 118.155 104.89 119.791 104.96C121.328 104.96 122.597 104.46 122.597 103.12C122.597 99.75 114.566 101.91 114.566 95.46C114.566 91.42 117.937 89.77 121.645 89.77C123.361 89.75 125.066 90.02 126.692 90.57L125.85 94.03V94.05ZM111.175 94.05C109.955 93.59 108.666 93.32 107.367 93.27C105.92 93.27 104.75 93.65 104.75 94.98C104.75 98.13 112.811 96.19 112.811 102.67C112.811 107.05 109.251 108.72 105.305 108.72C103.48 108.72 101.666 108.44 99.9208 107.92L100.268 104.07C101.834 104.59 103.471 104.89 105.116 104.96C106.614 104.96 107.883 104.46 107.883 103.12C107.883 99.75 99.8217 101.91 99.8217 95.46C99.8217 91.42 103.223 89.77 106.901 89.77C108.636 89.75 110.362 90.02 112.008 90.57L111.165 94.03L111.175 94.05ZM185.391 89.76C188.892 89.76 190.934 91.67 190.934 95.82V108.34H186.274V96.81C186.274 94.94 185.738 93.7 183.775 93.7C181.812 93.7 180.057 95.45 180.057 98.59V108.38H175.496V96.82C175.496 95.07 174.921 93.71 172.938 93.71C170.955 93.71 169.259 95.65 169.259 98.79V108.38H164.539V90.17C167.623 89.79 168.783 91.06 168.922 93.09C170.032 91 172.214 89.73 174.564 89.78C177.806 89.78 179.095 91.59 179.571 93.31C180.354 91.5 182.377 89.78 185.431 89.78H185.411L185.391 89.76ZM90.412 90.14C89.4105 95.54 86.8226 104.06 85.1866 108.34H80.2685L76.7982 96.23H76.7387L73.2683 108.34H68.3899C66.8134 104.11 63.9776 95.31 63.1645 90.14H67.795L70.8489 102.66H70.9183L74.5672 90.14H79.1977L82.7573 102.56H82.8267L85.9104 90.14H90.412ZM60.3981 94.05C59.1785 93.58 57.8895 93.32 56.5807 93.27C55.1331 93.27 54.0324 93.65 54.0324 94.98C54.0324 98.13 62.0342 96.19 62.0342 102.67C62.0342 107.05 58.5043 108.72 54.5282 108.72C52.7236 108.72 50.9289 108.45 49.2037 107.92L49.4813 104.07C51.0479 104.59 52.684 104.89 54.3299 104.96C55.8668 104.96 57.126 104.46 57.126 103.12C57.126 99.75 49.1243 101.91 49.1243 95.46C49.1243 91.42 52.4956 89.77 56.2039 89.77C57.9193 89.75 59.6247 90.02 61.2508 90.57L60.3783 94.03L60.3981 94.05ZM153.008 108.72C147.872 108.72 144.282 105.89 144.282 99.54C144.282 93.85 148.06 89.75 153.543 89.75C158.65 89.75 161.951 92.65 161.951 98.83C161.951 105.01 158.362 108.71 153.008 108.71V108.72ZM153.196 93.77C151.124 93.77 149.131 95.32 149.131 99.32C149.131 102.78 150.42 104.72 153.137 104.72C155.437 104.72 157.202 102.85 157.202 99.17C157.202 95.49 155.943 93.77 153.196 93.77ZM92.524 108.35H97.1544V90.14C94.983 89.92 92.524 90.52 92.524 93.95V108.34V108.35ZM95.0524 87.86C96.6587 87.92 97.9972 86.65 98.0567 85.04C98.0567 85.02 98.0567 84.99 98.0567 84.97C97.9873 83.35 96.6289 82.09 95.0226 82.15C93.5056 82.21 92.2959 83.44 92.2265 84.97C92.2463 86.55 93.4957 87.82 95.0524 87.86ZM138.274 108.66C132.919 108.66 129.419 105.96 129.419 99.51C129.419 94.04 132.423 89.82 138.997 89.82C140.504 89.82 141.992 90.08 143.41 90.58L142.408 94.39C141.367 93.98 140.257 93.75 139.136 93.72C135.765 93.72 134.377 95.94 134.377 99.27C134.377 102.6 135.636 104.67 138.948 104.67C140.207 104.66 141.446 104.39 142.597 103.87L143.132 107.62C142.23 108.2 140.306 108.64 138.293 108.64H138.274V108.66Z" fill="white"/>
<path fill-rule="evenodd" clip-rule="evenodd" d="M16.5523 121.75C7.97546 119.8 5.12975 113.02 8.71912 105.26C12.0011 108.49 13.5677 111.62 14.5196 116.05C14.8964 117.76 15.4715 120.2 16.5622 121.75M18.9419 127.28C29.3927 126.37 41.5688 117.91 39.199 106.14C35.9071 93.6401 19.7549 88.2401 12.9133 78.2501C6.86494 81.3101 0.162142 87.3001 1.14376 93.7301C2.96819 102.03 13.181 102.68 15.7491 115.2C16.2548 117.38 16.9588 121.14 18.932 122.08V127.28H18.9419ZM18.9419 82.7901V71.2301C18.8328 71.1901 18.6543 71.2001 18.5353 71.2101C16.4829 71.3101 13.9148 72.1501 13.4091 74.2801C13.2207 75.2601 13.3595 76.3201 13.9941 77.3201C15.5706 79.8201 18.3767 82.2901 18.9419 82.7901ZM34.2413 86.2501C32.4268 80.6601 26.3288 76.1001 20.3399 76.1401V83.9801C24.8019 87.6901 30.0273 91.1101 34.1124 95.2401C34.975 92.2901 35.213 89.2301 34.2512 86.2501M18.9419 86.0001C17.8016 86.2501 16.9687 87.1001 16.4928 88.1901C16.0565 89.2001 15.7789 90.2701 15.1839 91.1901C14.1032 92.8601 12.2391 92.9501 10.7022 93.9501C8.93725 95.0701 8.4514 96.9701 9.57184 98.7701C11.3169 101.45 14.827 102.1 15.7095 105.6C16.235 107.83 16.3837 110.81 18.9419 111.62V86.0001Z" fill="white"/>
</g>
</g>
</svg>
