<?xml version="1.0" encoding="UTF-8"?>
<svg id="uuid-09e3863a-646b-41bc-adb7-922cc5e054ac" xmlns="http://www.w3.org/2000/svg" version="1.1" viewBox="0 0 189.9 56.1">
  <!-- Generator: Adobe Illustrator 29.5.1, SVG Export Plug-In . SVG Version: 2.1.0 Build 141)  -->
  <defs>
    <style>
      .st0 {
        fill-rule: evenodd;
      }

      .st0, .st1 {
        fill: #fff;
      }
    </style>
  </defs>
  <g id="uuid-2d341804-dfee-4553-b71b-46c71f98a52d">
    <g>
      <path class="st1" d="M124.8,22.9c-1.2-.5-2.5-.7-3.8-.8-1.4,0-2.6.4-2.6,1.7,0,3.1,8,1.2,8,7.7s-3.5,6.1-7.5,6.1-3.6-.3-5.3-.8l.3-3.8c1.6.5,3.2.8,4.8.9,1.5,0,2.8-.5,2.8-1.8,0-3.4-8-1.2-8-7.7s3.4-5.7,7.1-5.7c1.7,0,3.4.2,5.1.8l-.8,3.5s0,0,0,0ZM110.1,22.9c-1.2-.5-2.5-.7-3.8-.8-1.4,0-2.6.4-2.6,1.7,0,3.1,8.1,1.2,8.1,7.7s-3.6,6.1-7.5,6.1-3.6-.3-5.4-.8l.3-3.8c1.6.5,3.2.8,4.8.9,1.5,0,2.8-.5,2.8-1.8,0-3.4-8.1-1.2-8.1-7.7s3.4-5.7,7.1-5.7c1.7,0,3.5.2,5.1.8l-.8,3.5s0,0,0,0ZM184.3,18.6c3.5,0,5.5,1.9,5.5,6.1v12.5h-4.7v-11.5c0-1.9-.5-3.1-2.5-3.1s-3.7,1.8-3.7,4.9v9.8h-4.6v-11.6c0-1.8-.6-3.1-2.6-3.1s-3.7,1.9-3.7,5.1v9.6h-4.7v-18.2c3.1-.4,4.2.9,4.4,2.9,1.1-2.1,3.3-3.4,5.6-3.3,3.2,0,4.5,1.8,5,3.5.8-1.8,2.8-3.5,5.9-3.5h0s0,0,0,0ZM89.4,18.9c-1,5.4-3.6,13.9-5.2,18.2h-4.9l-3.5-12.1h0l-3.5,12.1h-4.9c-1.6-4.2-4.4-13-5.2-18.2h4.6l3.1,12.5h0l3.7-12.5h4.6l3.6,12.4h0l3.1-12.4h4.5ZM59.3,22.9c-1.2-.5-2.5-.7-3.8-.8-1.5,0-2.5.4-2.5,1.7,0,3.1,8,1.2,8,7.7s-3.5,6.1-7.5,6.1-3.6-.3-5.3-.8l.3-3.8c1.6.5,3.2.8,4.8.9,1.5,0,2.8-.5,2.8-1.8,0-3.4-8-1.2-8-7.7s3.4-5.7,7.1-5.7c1.7,0,3.4.2,5,.8l-.9,3.5h0s0,0,0,0ZM152,37.5c-5.1,0-8.7-2.8-8.7-9.2s3.8-9.8,9.3-9.8,8.4,2.9,8.4,9.1-3.6,9.9-8.9,9.9h0ZM152.1,22.6c-2.1,0-4.1,1.5-4.1,5.5s1.3,5.4,4,5.4,4.1-1.9,4.1-5.5-1.3-5.4-4-5.4ZM91.5,37.2h4.6v-18.2c-2.2-.2-4.6.4-4.6,3.8v14.4h0ZM94,16.7c1.6,0,2.9-1.2,3-2.8h0c0-1.7-1.4-2.9-3-2.9-1.5,0-2.7,1.3-2.8,2.8,0,1.6,1.3,2.9,2.8,2.9ZM137.2,37.5c-5.4,0-8.9-2.7-8.9-9.1s3-9.7,9.6-9.7,3,.3,4.4.8l-1,3.8c-1-.4-2.1-.6-3.3-.7-3.4,0-4.8,2.2-4.8,5.6s1.3,5.4,4.6,5.4,2.5-.3,3.6-.8l.5,3.8c-.9.6-2.8,1-4.8,1h0s0,0,0,0Z"/>
      <path class="st0" d="M15.5,50.5c-8.6-2-11.4-8.7-7.8-16.5,3.3,3.2,4.9,6.4,5.8,10.8.4,1.7.9,4.2,2,5.7M17.9,56.1c10.5-.9,22.6-9.4,20.3-21.1-3.3-12.5-19.4-17.9-26.3-27.9C5.8,10.1-.9,16.1.1,22.5c1.8,8.3,12,8.9,14.6,21.5.5,2.2,1.2,5.9,3.2,6.9v5.2h0ZM17.9,11.6V0c-.1,0-.3,0-.4,0-2.1,0-4.6.9-5.1,3.1-.2,1,0,2,.6,3,1.6,2.5,4.4,5,4.9,5.5ZM33.2,15.1c-1.8-5.6-7.9-10.1-13.9-10.1v7.8c4.5,3.7,9.7,7.1,13.8,11.3.9-3,1.1-6,.1-9M17.9,14.8c-1.1.2-2,1.1-2.4,2.2-.4,1-.7,2.1-1.3,3-1.1,1.7-2.9,1.8-4.5,2.8-1.8,1.1-2.2,3-1.1,4.8,1.8,2.7,5.3,3.3,6.1,6.8.5,2.2.7,5.2,3.2,6V14.8Z"/>
    </g>
  </g>
</svg>