<svg width="21" height="21" viewBox="0 0 21 21" fill="none" xmlns="http://www.w3.org/2000/svg">
<path d="M11.5107 2.37793V13.5368C11.5107 14.1279 11.2759 14.6947 10.8579 15.1127C10.44 15.5306 9.8731 15.7654 9.28203 15.7654C8.69097 15.7654 8.12411 15.5306 7.70616 15.1127C7.28821 14.6947 7.05341 14.1279 7.05341 13.5368C7.05341 12.945 7.28796 12.3773 7.70568 11.9581C8.1234 11.5389 8.69024 11.3024 9.28203 11.3003V8.33143C7.90148 8.33143 6.57748 8.87985 5.60128 9.85605C4.62508 10.8322 4.07666 12.1563 4.07666 13.5368C4.07666 14.2204 4.2113 14.8973 4.4729 15.5288C4.73449 16.1604 5.11792 16.7342 5.60128 17.2176C6.57748 18.1938 7.90148 18.7422 9.28203 18.7422C9.96561 18.7422 10.6425 18.6075 11.274 18.3459C11.9056 18.0843 12.4794 17.7009 12.9628 17.2176C13.4462 16.7342 13.8296 16.1604 14.0912 15.5288C14.3528 14.8973 14.4874 14.2204 14.4874 13.5368V8.33143L14.6449 8.41018C15.5213 8.84443 16.4861 9.07079 17.4642 9.07168V6.09493H17.3775C16.5517 5.8892 15.8185 5.41302 15.2948 4.74225C14.771 4.07148 14.4868 3.24472 14.4874 2.39368H11.5107V2.37793Z" stroke="white" stroke-width="0.84" stroke-miterlimit="10"/>
</svg>
