<svg width="196" height="150" viewBox="0 0 196 150" fill="none" xmlns="http://www.w3.org/2000/svg">
<g clip-path="url(#clip0_104_24)">
<mask id="mask0_104_24" style="mask-type:luminance" maskUnits="userSpaceOnUse" x="0" y="60" width="196" height="61">
<path d="M195.034 60.8198H0.95459V120.21H195.034V60.8198Z" fill="white"/>
</mask>
<g mask="url(#mask0_104_24)">
<mask id="mask1_104_24" style="mask-type:luminance" maskUnits="userSpaceOnUse" x="0" y="60" width="196" height="61">
<path d="M195.034 60.8198H0.95459V120.21H195.034V60.8198Z" fill="white"/>
</mask>
<g mask="url(#mask1_104_24)">
<path d="M49.1502 62.7198C48.8366 62.1693 48.3915 61.7069 47.8554 61.375C47.3194 61.0431 46.7095 60.8522 46.0816 60.8198C44.2009 60.8198 42.1222 62.3198 39.9446 65.3198C36.1832 70.5198 32.0258 80.2198 27.2745 91.6098C25.3938 88.3098 21.0385 83.6098 14.8024 83.6098C13.1046 83.6208 11.4246 83.9603 9.85321 84.6098C7.24455 85.6175 4.99812 87.3979 3.40841 89.7177C1.8187 92.0375 0.959896 94.7884 0.94458 97.6098C0.94458 104.71 6.28976 110.61 12.7238 110.71H12.9217C14.5164 110.691 16.0855 110.302 17.5081 109.574C18.9307 108.846 20.169 107.797 21.1276 106.51C22.0551 105.371 22.852 104.13 23.5032 102.81C25.3675 107.743 27.7924 112.441 30.7291 116.81C32.4118 119.01 34.2926 120.21 36.1733 120.21C38.054 120.21 39.5387 119.11 40.9245 116.91C44.686 110.91 47.3585 102.01 49.2393 93.3098C50.4597 87.2229 51.0895 81.0303 51.12 74.8198C51.1478 72.5133 51.0155 70.2076 50.724 67.9198C50.6354 66.0799 50.0909 64.2918 49.1403 62.7198M22.4243 102C21.5334 103.7 19.3557 107.3 15.9903 108C15.5671 108.087 15.1348 108.12 14.7035 108.1C12.8673 108.086 11.0955 107.415 9.7021 106.207C8.30872 104.999 7.38387 103.331 7.09153 101.5C6.97108 100.941 6.90478 100.372 6.89357 99.7998C6.81892 98.1004 7.30266 96.4238 8.26945 95.0311C9.23624 93.6384 10.6318 92.6078 12.2387 92.0998C12.8093 91.9032 13.4077 91.8018 14.0106 91.7998C17.574 91.7998 20.8405 95.3998 22.7212 101C22.8202 101.3 22.6222 101.6 22.4243 102ZM45.0324 98.7098C43.1517 101.51 40.7761 102.91 38.6974 102.91H38.3014C33.2532 102.51 29.5908 95.7098 28.205 93.1098C29.529 89.8173 31.1181 86.6399 32.9563 83.6098C35.1339 80.2198 38.0045 77.3198 41.271 76.8198C41.5679 76.8198 41.8649 76.7198 42.0629 76.7198C42.986 76.7436 43.8881 77.0039 44.6844 77.4761C45.4808 77.9484 46.1455 78.6172 46.6162 79.4198C47.725 81.2199 48.3083 83.2997 48.2989 85.4198C48.1999 91.5198 46.9131 95.8198 45.0324 98.7198M71.6494 92.7198L73.0352 93.2198C73.2253 93.3028 73.3848 93.4439 73.4914 93.6233C73.5979 93.8027 73.6461 94.0113 73.6291 94.2198C73.6107 94.5285 73.5439 94.8323 73.4311 95.1198L69.5707 105.12L65.3243 91.7198H59.3852C59.3355 92.1183 59.3355 92.5214 59.3852 92.9198C60.771 93.4198 61.2659 93.3198 61.7608 94.6198L66.908 109.22L69.9766 108.32L75.2129 95.6198C75.5494 94.4976 76.0861 93.447 76.7966 92.5198V91.7198H71.6494C71.5502 92.0456 71.5502 92.394 71.6494 92.7198ZM111.441 106.12L111.243 100.12V93.1198C111.243 91.9198 110.451 91.4198 109.264 91.4198C107.686 91.4911 106.123 91.7598 104.611 92.2198V93.4198H107.086V99.9998L106.987 104.6C105.758 105.229 104.405 105.571 103.028 105.6C101.048 105.6 100.751 104.1 100.751 102.4V93.0998C100.751 91.8998 100.058 91.3998 98.8702 91.3998C97.2302 91.4943 95.6045 91.7624 94.02 92.1998V93.3998H96.5936V103C96.5936 105.9 96.8905 108.6 101.444 108.6C103.819 108.6 105.502 107.3 107.086 105.7C107.086 107.5 107.977 108.5 109.561 108.5C111.202 108.434 112.787 107.877 114.114 106.9L114.015 106H111.441V106.12ZM130.832 106.12L130.733 99.8198V83.5198C130.733 82.3098 130.337 82.0198 129.15 82.0198C127.359 82.0839 125.576 82.2811 123.814 82.6098V83.9998H126.586V91.6898C125.731 91.5571 124.867 91.4902 124.002 91.4898C119.261 91.4898 115.5 94.9898 115.5 100.69C115.5 107.09 118.766 108.69 122.033 108.69C122.921 108.66 123.791 108.428 124.579 108.013C125.367 107.597 126.053 107.009 126.586 106.29C126.586 107.39 126.972 108.69 128.566 108.69C130.352 108.659 132.096 108.141 133.614 107.19L133.416 106.19H130.842L130.832 106.12ZM126.586 99.8198L126.477 105.02C125.588 105.347 124.659 105.549 123.715 105.62C121.439 105.62 119.855 103.92 119.855 100.02C119.855 95.5198 121.043 93.3198 124.111 93.3198C124.96 93.3281 125.799 93.4977 126.586 93.8198V99.8198ZM142.81 91.3198C138.157 91.3198 134.495 95.8198 134.495 100.32C134.495 106.12 137.563 108.62 142.513 108.62C147.264 108.62 150.926 104.12 150.926 99.7198C150.827 94.0198 148.155 91.3198 142.81 91.3198ZM143.008 106.72C139.741 106.72 138.949 103.32 138.949 99.7198C138.949 96.4198 139.741 93.2198 142.612 93.2198C145.779 93.2198 146.472 96.4198 146.472 100.32C146.472 103.52 145.878 106.72 143.008 106.72ZM159.736 105.72L159.637 100.12V92.8198C159.637 91.7198 159.142 91.5198 158.251 91.5198C156.417 91.5619 154.593 91.7965 152.807 92.2198V93.6198H155.579V100.22L155.48 105.62C155.508 105.907 155.447 106.197 155.305 106.448C155.163 106.699 154.947 106.899 154.688 107.02L152.807 107.62C152.807 108.02 152.906 108.22 152.906 108.62H162.31C162.463 108.275 162.53 107.897 162.508 107.52L160.231 107.02C159.835 106.72 159.736 106.42 159.736 105.72ZM195.064 99.2198C195.064 94.9198 192.985 91.2198 188.234 91.2198C183.195 91.2198 179.83 95.6198 179.83 100.42C179.83 105.42 182.799 108.52 188.333 108.52C189.546 108.543 190.752 108.316 191.875 107.851C192.999 107.387 194.016 106.696 194.866 105.82L194.371 104.82C192.877 105.173 191.351 105.374 189.817 105.42C186.65 105.42 184.373 104.02 184.185 99.9198H195.074L195.064 99.2198ZM184.175 98.3198C184.274 94.7198 185.759 93.0198 187.63 93.0198C189.907 93.0198 190.698 95.2198 190.698 98.3198H184.175ZM157.548 87.7198C158.038 87.7198 158.517 87.5729 158.924 87.2978C159.331 87.0226 159.649 86.6316 159.836 86.1742C160.023 85.7168 160.071 85.2136 159.975 84.7284C159.878 84.2432 159.642 83.7977 159.295 83.4485C158.948 83.0993 158.506 82.862 158.025 82.7666C157.544 82.6713 157.047 82.7223 156.595 82.913C156.143 83.1038 155.757 83.4258 155.486 83.8382C155.215 84.2506 155.072 84.735 155.074 85.2298C155.071 85.5584 155.133 85.8842 155.257 86.1882C155.38 86.4922 155.563 86.7682 155.793 87.0001C156.024 87.2319 156.298 87.415 156.599 87.5386C156.9 87.6622 157.223 87.7238 157.548 87.7198ZM168.14 95.0198C168.14 93.8198 169.031 93.0198 170.713 93.0198C173.683 93.0198 174.376 94.6198 174.772 96.5198L175.762 96.6198L176.257 92.5198C174.645 91.6457 172.84 91.1985 171.01 91.2198C167.645 91.2198 164.675 93.2198 164.675 96.4198C164.675 102.12 173.188 101.72 173.188 104.52C173.188 105.92 172 106.72 170.416 106.72C168.041 106.72 166.556 105.12 166.16 102.72H164.972L164.675 107.22C166.441 108.061 168.366 108.505 170.317 108.52C173.386 108.52 177.246 107.02 177.246 103.02C177.147 97.9198 168.14 98.3198 168.14 95.0198ZM91.2385 106.12L91.0405 100.02V96.1198C91.0405 91.9198 87.5761 91.4198 85.1014 91.4198C82.7819 91.5427 80.5473 92.3416 78.6674 93.7198L79.1624 94.9198C80.5205 94.5579 81.9156 94.3566 83.3197 94.3198C85.7943 94.3198 87.0811 95.1198 87.0811 97.2198V99.2198L84.4085 99.5198C81.142 99.9198 77.5786 100.92 77.5786 104.92C77.5799 105.457 77.6907 105.989 77.904 106.481C78.1173 106.974 78.4286 107.417 78.8185 107.782C79.2084 108.148 79.6686 108.429 80.1705 108.607C80.6724 108.786 81.2052 108.858 81.736 108.82C82.806 108.807 83.8576 108.537 84.8042 108.033C85.7508 107.529 86.5651 106.805 87.1801 105.92C87.2791 107.72 87.873 108.72 90.0507 108.72C91.5185 108.604 92.9087 108.007 94.0101 107.02L93.9111 106.22H91.2385V106.12ZM86.9821 104.92C85.9837 105.488 84.8614 105.797 83.7157 105.82C83.4366 105.844 83.1556 105.807 82.8925 105.71C82.6293 105.613 82.3903 105.459 82.1923 105.259C81.9942 105.059 81.8419 104.817 81.7459 104.551C81.65 104.286 81.6128 104.002 81.637 103.72C81.637 102.12 83.2207 101.22 85.1014 100.82L86.9821 100.52V104.92Z" fill="white"/>
</g>
</g>
</g>
<defs>
<clipPath id="clip0_104_24">
<rect width="195" height="150" fill="white" transform="translate(0.48938)"/>
</clipPath>
</defs>
</svg>
