<?xml version="1.0" encoding="UTF-8"?>
<svg id="Calque_1" xmlns="http://www.w3.org/2000/svg" xmlns:xlink="http://www.w3.org/1999/xlink" version="1.1" viewBox="0 0 196 60.9">
  <!-- Generator: Adobe Illustrator 29.5.1, SVG Export Plug-In . SVG Version: 2.1.0 Build 141)  -->
  <defs>
    <style>
      .st0 {
        fill: none;
      }

      .st1 {
        mask: url(#mask);
      }

      .st2 {
        mask: url(#mask-1);
      }

      .st3 {
        fill: #fff;
      }

      .st4 {
        clip-path: url(#clippath);
      }
    </style>
    <clipPath id="clippath">
      <rect class="st0" x=".5" y="-60.1" width="195" height="150"/>
    </clipPath>
    <mask id="mask" x=".9" y=".7" width="194.1" height="59.4" maskUnits="userSpaceOnUse">
      <g id="mask0_104_24">
        <path class="st3" d="M195,.7H1v59.4h194.1V.7Z"/>
      </g>
    </mask>
    <mask id="mask-1" x=".9" y=".7" width="194.1" height="59.4" maskUnits="userSpaceOnUse">
      <g id="mask1_104_24">
        <path class="st3" d="M195,.7H1v59.4h194.1V.7Z"/>
      </g>
    </mask>
  </defs>
  <g class="st4">
    <g class="st1">
      <g class="st2">
        <path class="st3" d="M49.2,2.6c-.3-.6-.8-1-1.3-1.3-.5-.3-1.1-.5-1.8-.6-1.9,0-4,1.5-6.1,4.5-3.8,5.2-7.9,14.9-12.7,26.3-1.9-3.3-6.2-8-12.5-8-1.7,0-3.4.4-4.9,1-2.6,1-4.9,2.8-6.4,5.1-1.6,2.3-2.4,5.1-2.5,7.9,0,7.1,5.3,13,11.8,13.1h.2c1.6,0,3.2-.4,4.6-1.1,1.4-.7,2.7-1.8,3.6-3.1.9-1.1,1.7-2.4,2.4-3.7,1.9,4.9,4.3,9.6,7.2,14,1.7,2.2,3.6,3.4,5.4,3.4s3.4-1.1,4.8-3.3c3.8-6,6.4-14.9,8.3-23.6,1.2-6.1,1.9-12.3,1.9-18.5,0-2.3-.1-4.6-.4-6.9,0-1.8-.6-3.6-1.6-5.2M22.4,41.9c-.9,1.7-3.1,5.3-6.4,6-.4,0-.9.1-1.3,0-1.8,0-3.6-.7-5-1.9-1.4-1.2-2.3-2.9-2.6-4.7-.1-.6-.2-1.1-.2-1.7,0-1.7.4-3.4,1.4-4.8s2.4-2.4,4-2.9c.6-.2,1.2-.3,1.8-.3,3.6,0,6.8,3.6,8.7,9.2,0,.3,0,.6-.3,1ZM45,38.6c-1.9,2.8-4.3,4.2-6.3,4.2h-.4c-5-.4-8.7-7.2-10.1-9.8,1.3-3.3,2.9-6.5,4.8-9.5,2.2-3.4,5-6.3,8.3-6.8.3,0,.6,0,.8,0,.9,0,1.8.3,2.6.8.8.5,1.5,1.1,1.9,1.9,1.1,1.8,1.7,3.9,1.7,6,0,6.1-1.4,10.4-3.3,13.3M71.6,32.6l1.4.5c.2,0,.3.2.5.4.1.2.2.4.1.6,0,.3,0,.6-.2.9l-3.9,10-4.2-13.4h-5.9c0,.4,0,.8,0,1.2,1.4.5,1.9.4,2.4,1.7l5.1,14.6,3.1-.9,5.2-12.7c.3-1.1.9-2.2,1.6-3.1v-.8h-5.1c0,.3,0,.7,0,1ZM111.4,46l-.2-6v-7c0-1.2-.8-1.7-2-1.7-1.6,0-3.1.3-4.7.8v1.2h2.5v11.2c-1.3.6-2.7,1-4.1,1-2,0-2.3-1.5-2.3-3.2v-9.3c0-1.2-.7-1.7-1.9-1.7-1.6,0-3.3.4-4.9.8v1.2h2.6v9.6c0,2.9.3,5.6,4.9,5.6s4.1-1.3,5.6-2.9c0,1.8.9,2.8,2.5,2.8,1.6,0,3.2-.6,4.6-1.6v-.9h-2.7ZM130.8,46v-6.3c0,0,0-16.3,0-16.3,0-1.2-.4-1.5-1.6-1.5-1.8,0-3.6.3-5.3.6v1.4h2.8v7.7c-.9-.1-1.7-.2-2.6-.2-4.7,0-8.5,3.5-8.5,9.2s3.3,8,6.5,8c.9,0,1.8-.3,2.5-.7.8-.4,1.5-1,2-1.7,0,1.1.4,2.4,2,2.4,1.8,0,3.5-.5,5-1.5l-.2-1h-2.6ZM126.6,39.7v5.2c-1,.3-1.9.5-2.9.6-2.3,0-3.9-1.7-3.9-5.6s1.2-6.7,4.3-6.7c.8,0,1.7.2,2.5.5v6ZM142.8,31.2c-4.7,0-8.3,4.5-8.3,9s3.1,8.3,8,8.3,8.4-4.5,8.4-8.9c0-5.7-2.8-8.4-8.1-8.4ZM143,46.6c-3.3,0-4.1-3.4-4.1-7s.8-6.5,3.7-6.5,3.9,3.2,3.9,7.1-.6,6.4-3.5,6.4ZM159.7,45.6v-5.6c0,0,0-7.3,0-7.3,0-1.1-.5-1.3-1.4-1.3-1.8,0-3.7.3-5.4.7v1.4h2.8v12c0,.3-.1.6-.3.8-.1.3-.4.5-.6.6l-1.9.6c0,.4,0,.6,0,1h9.4c.2-.3.2-.7.2-1.1l-2.3-.5c-.4-.3-.5-.6-.5-1.3ZM195.1,39.1c0-4.3-2.1-8-6.8-8s-8.4,4.4-8.4,9.2,3,8.1,8.5,8.1c1.2,0,2.4-.2,3.5-.7,1.1-.5,2.1-1.2,3-2l-.5-1c-1.5.4-3,.6-4.6.6-3.2,0-5.4-1.4-5.6-5.5h10.9v-.7ZM184.2,38.2c0-3.6,1.6-5.3,3.5-5.3s3.1,2.2,3.1,5.3h-6.5ZM157.5,27.6c.5,0,1-.1,1.4-.4.4-.3.7-.7.9-1.1.2-.5.2-1,.1-1.4,0-.5-.3-.9-.7-1.3-.3-.3-.8-.6-1.3-.7-.5,0-1,0-1.4.1-.5.2-.8.5-1.1.9-.3.4-.4.9-.4,1.4,0,.3,0,.7.2,1,.1.3.3.6.5.8.2.2.5.4.8.5.3.1.6.2.9.2ZM168.1,34.9c0-1.2.9-2,2.6-2,3,0,3.7,1.6,4.1,3.5h1c0,0,.5-4,.5-4-1.6-.9-3.4-1.3-5.2-1.3-3.4,0-6.3,2-6.3,5.2,0,5.7,8.5,5.3,8.5,8.1s-1.2,2.2-2.8,2.2c-2.4,0-3.9-1.6-4.3-4h-1.2l-.3,4.5c1.8.8,3.7,1.3,5.6,1.3,3.1,0,6.9-1.5,6.9-5.5,0-5.1-9.1-4.7-9.1-8ZM91.2,46l-.2-6.1v-3.9c0-4.2-3.5-4.7-5.9-4.7-2.3.1-4.6.9-6.4,2.3l.5,1.2c1.4-.4,2.8-.6,4.2-.6,2.5,0,3.8.8,3.8,2.9v2l-2.7.3c-3.3.4-6.8,1.4-6.8,5.4,0,.5.1,1.1.3,1.6.2.5.5.9.9,1.3.4.4.9.6,1.4.8.5.2,1,.3,1.6.2,1.1,0,2.1-.3,3.1-.8.9-.5,1.8-1.2,2.4-2.1,0,1.8.7,2.8,2.9,2.8,1.5-.1,2.9-.7,4-1.7v-.8h-2.8ZM87,44.8c-1,.6-2.1.9-3.3.9-.3,0-.6,0-.8-.1-.3,0-.5-.3-.7-.5-.2-.2-.4-.4-.4-.7,0-.3-.1-.5-.1-.8,0-1.6,1.6-2.5,3.5-2.9l1.9-.3v4.4Z"/>
      </g>
    </g>
  </g>
</svg>