<svg width="21" height="21" viewBox="0 0 21 21" fill="none" xmlns="http://www.w3.org/2000/svg">
<g clip-path="url(#clip0_104_123)">
<path d="M2.03052 10.5598C2.03052 9.31909 2.09016 8.14897 2.16828 7.16785C2.28588 5.68609 3.4602 4.54705 4.9428 4.44373C6.36744 4.34377 8.31372 4.25977 10.8505 4.25977C13.3873 4.25977 15.3336 4.34377 16.7582 4.44373C18.2408 4.54705 19.4152 5.68693 19.5328 7.16785C19.6109 8.14981 19.6705 9.31825 19.6705 10.5598C19.6705 11.845 19.6067 13.0537 19.5244 14.0567C19.474 14.7417 19.1766 15.3852 18.6875 15.8674C18.1983 16.3497 17.5506 16.6378 16.8649 16.6783C15.426 16.7766 13.4125 16.8598 10.8505 16.8598C8.28852 16.8598 6.27504 16.7766 4.83612 16.6783C4.15041 16.6378 3.50274 16.3497 3.01357 15.8674C2.52439 15.3852 2.22699 14.7417 2.17668 14.0567C2.08093 12.8935 2.03217 11.7269 2.03052 10.5598Z" stroke="white" stroke-width="0.84" stroke-linejoin="round"/>
<path d="M9.17065 13.08V8.04004L13.7907 10.56L9.17065 13.08Z" stroke="white" stroke-width="0.84" stroke-linejoin="round"/>
</g>
<defs>
<clipPath id="clip0_104_123">
<rect width="20.16" height="20.16" fill="white" transform="translate(0.770508 0.47998)"/>
</clipPath>
</defs>
</svg>
